<mxfile host="app.diagrams.net" agent="Mozilla/5.0 (Macintosh; Intel Mac OS X 10_15_7) AppleWebKit/537.36 (KHTML, like Gecko) Chrome/136.0.0.0 Safari/537.36" version="27.1.1">
  <diagram name="Page-1" id="l2S9_V17LSx0g2caQ3-e">
    <mxGraphModel dx="1566" dy="888" grid="0" gridSize="10" guides="1" tooltips="1" connect="1" arrows="1" fold="1" page="1" pageScale="1" pageWidth="850" pageHeight="1100" background="#ffffff" math="0" shadow="0">
      <root>
        <mxCell id="0" />
        <mxCell id="1" parent="0" />
        <mxCell id="upFs9hlHG09d8Zoyp-7f-138" value="" style="rounded=1;whiteSpace=wrap;html=1;fillColor=#b0e3e6;strokeColor=#0e8088;gradientColor=none;gradientDirection=west;glass=0;shadow=0;labelBackgroundColor=none;" vertex="1" parent="1">
          <mxGeometry x="68" y="1568.5" width="342" height="267" as="geometry" />
        </mxCell>
        <mxCell id="upFs9hlHG09d8Zoyp-7f-25" value="" style="ellipse;whiteSpace=wrap;html=1;aspect=fixed;fillColor=#e51400;strokeColor=#FC0000;fillStyle=auto;gradientDirection=radial;fontColor=#ffffff;gradientColor=#FFFFFF;" vertex="1" parent="1">
          <mxGeometry x="400" y="810" width="80" height="80" as="geometry" />
        </mxCell>
        <mxCell id="BV9LAlD0pBRLWUlOU1_M-10" style="edgeStyle=orthogonalEdgeStyle;rounded=0;orthogonalLoop=1;jettySize=auto;html=1;exitX=0.5;exitY=0;exitDx=0;exitDy=0;entryX=0.5;entryY=1;entryDx=0;entryDy=0;labelBackgroundColor=none;fontColor=default;" edge="1" parent="1" source="BV9LAlD0pBRLWUlOU1_M-1" target="BV9LAlD0pBRLWUlOU1_M-7">
          <mxGeometry relative="1" as="geometry" />
        </mxCell>
        <mxCell id="BV9LAlD0pBRLWUlOU1_M-1" value="inputs" style="rounded=1;whiteSpace=wrap;html=1;labelBackgroundColor=none;" vertex="1" parent="1">
          <mxGeometry x="130" y="460" width="120" height="30" as="geometry" />
        </mxCell>
        <mxCell id="BV9LAlD0pBRLWUlOU1_M-13" style="edgeStyle=orthogonalEdgeStyle;rounded=0;orthogonalLoop=1;jettySize=auto;html=1;entryX=0.5;entryY=1;entryDx=0;entryDy=0;labelBackgroundColor=none;fontColor=default;" edge="1" parent="1" source="BV9LAlD0pBRLWUlOU1_M-5" target="BV9LAlD0pBRLWUlOU1_M-8">
          <mxGeometry relative="1" as="geometry" />
        </mxCell>
        <mxCell id="BV9LAlD0pBRLWUlOU1_M-5" value="inputs" style="rounded=1;whiteSpace=wrap;html=1;labelBackgroundColor=none;" vertex="1" parent="1">
          <mxGeometry x="320" y="360" width="120" height="30" as="geometry" />
        </mxCell>
        <mxCell id="BV9LAlD0pBRLWUlOU1_M-12" style="edgeStyle=orthogonalEdgeStyle;rounded=0;orthogonalLoop=1;jettySize=auto;html=1;exitX=0.5;exitY=0;exitDx=0;exitDy=0;entryX=0;entryY=0.5;entryDx=0;entryDy=0;labelBackgroundColor=none;fontColor=default;" edge="1" parent="1" source="BV9LAlD0pBRLWUlOU1_M-6" target="BV9LAlD0pBRLWUlOU1_M-8">
          <mxGeometry relative="1" as="geometry">
            <Array as="points">
              <mxPoint x="190" y="240" />
              <mxPoint x="280" y="240" />
              <mxPoint x="280" y="290" />
            </Array>
          </mxGeometry>
        </mxCell>
        <mxCell id="BV9LAlD0pBRLWUlOU1_M-6" value="State" style="rounded=1;whiteSpace=wrap;html=1;labelBackgroundColor=none;fillColor=#dae8fc;strokeColor=#6c8ebf;" vertex="1" parent="1">
          <mxGeometry x="130" y="275" width="120" height="30" as="geometry" />
        </mxCell>
        <mxCell id="BV9LAlD0pBRLWUlOU1_M-11" style="edgeStyle=orthogonalEdgeStyle;rounded=0;orthogonalLoop=1;jettySize=auto;html=1;entryX=0.5;entryY=1;entryDx=0;entryDy=0;labelBackgroundColor=none;fontColor=default;" edge="1" parent="1" source="BV9LAlD0pBRLWUlOU1_M-7" target="BV9LAlD0pBRLWUlOU1_M-6">
          <mxGeometry relative="1" as="geometry" />
        </mxCell>
        <mxCell id="BV9LAlD0pBRLWUlOU1_M-7" value="Encoder" style="rounded=0;whiteSpace=wrap;html=1;labelBackgroundColor=none;fillColor=#0063FF;strokeColor=#001DBC;fontColor=#ffffff;" vertex="1" parent="1">
          <mxGeometry x="130" y="360" width="120" height="60" as="geometry" />
        </mxCell>
        <mxCell id="BV9LAlD0pBRLWUlOU1_M-14" style="edgeStyle=orthogonalEdgeStyle;rounded=0;orthogonalLoop=1;jettySize=auto;html=1;entryX=0.5;entryY=1;entryDx=0;entryDy=0;labelBackgroundColor=none;fontColor=default;" edge="1" parent="1" source="BV9LAlD0pBRLWUlOU1_M-8" target="BV9LAlD0pBRLWUlOU1_M-9">
          <mxGeometry relative="1" as="geometry" />
        </mxCell>
        <mxCell id="BV9LAlD0pBRLWUlOU1_M-8" value="Decoder" style="rounded=0;whiteSpace=wrap;html=1;labelBackgroundColor=none;fillColor=#FF4C82;strokeColor=#A50040;fontColor=#ffffff;fillStyle=auto;gradientColor=none;" vertex="1" parent="1">
          <mxGeometry x="320" y="260" width="120" height="60" as="geometry" />
        </mxCell>
        <mxCell id="BV9LAlD0pBRLWUlOU1_M-9" value="Outputs" style="rounded=1;whiteSpace=wrap;html=1;labelBackgroundColor=none;" vertex="1" parent="1">
          <mxGeometry x="320" y="180" width="120" height="30" as="geometry" />
        </mxCell>
        <mxCell id="upFs9hlHG09d8Zoyp-7f-1" value="Attention&lt;div&gt;Pooling&lt;/div&gt;" style="rounded=0;whiteSpace=wrap;html=1;fillColor=#f5f5f5;fontColor=#333333;strokeColor=#666666;" vertex="1" parent="1">
          <mxGeometry x="250" y="590" width="110" height="300" as="geometry" />
        </mxCell>
        <mxCell id="upFs9hlHG09d8Zoyp-7f-3" value="Key" style="rounded=1;whiteSpace=wrap;html=1;fillColor=#d5e8d4;strokeColor=#82b366;" vertex="1" parent="1">
          <mxGeometry x="150" y="600" width="60" height="30" as="geometry" />
        </mxCell>
        <mxCell id="upFs9hlHG09d8Zoyp-7f-5" value="Key" style="rounded=1;whiteSpace=wrap;html=1;fillColor=#d5e8d4;strokeColor=#82b366;" vertex="1" parent="1">
          <mxGeometry x="150" y="660" width="60" height="30" as="geometry" />
        </mxCell>
        <mxCell id="upFs9hlHG09d8Zoyp-7f-6" value="Key" style="rounded=1;whiteSpace=wrap;html=1;fillColor=#d5e8d4;strokeColor=#82b366;" vertex="1" parent="1">
          <mxGeometry x="150" y="720" width="60" height="30" as="geometry" />
        </mxCell>
        <mxCell id="upFs9hlHG09d8Zoyp-7f-7" value="Key" style="rounded=1;whiteSpace=wrap;html=1;fillColor=#d5e8d4;strokeColor=#82b366;" vertex="1" parent="1">
          <mxGeometry x="150" y="780" width="60" height="30" as="geometry" />
        </mxCell>
        <mxCell id="upFs9hlHG09d8Zoyp-7f-8" value="Key" style="rounded=1;whiteSpace=wrap;html=1;fillColor=#d5e8d4;strokeColor=#82b366;" vertex="1" parent="1">
          <mxGeometry x="150" y="840" width="60" height="30" as="geometry" />
        </mxCell>
        <mxCell id="upFs9hlHG09d8Zoyp-7f-16" style="edgeStyle=orthogonalEdgeStyle;rounded=0;orthogonalLoop=1;jettySize=auto;html=1;exitX=1;exitY=0.5;exitDx=0;exitDy=0;entryX=0.5;entryY=1;entryDx=0;entryDy=0;" edge="1" parent="1" source="upFs9hlHG09d8Zoyp-7f-9" target="upFs9hlHG09d8Zoyp-7f-1">
          <mxGeometry relative="1" as="geometry" />
        </mxCell>
        <mxCell id="upFs9hlHG09d8Zoyp-7f-9" value="Query" style="rounded=1;whiteSpace=wrap;html=1;fillColor=#dae8fc;strokeColor=#6c8ebf;" vertex="1" parent="1">
          <mxGeometry x="150" y="930" width="60" height="30" as="geometry" />
        </mxCell>
        <mxCell id="upFs9hlHG09d8Zoyp-7f-10" value="Value" style="rounded=1;whiteSpace=wrap;html=1;fillColor=#fff2cc;strokeColor=#d6b656;" vertex="1" parent="1">
          <mxGeometry x="410" y="595" width="60" height="30" as="geometry" />
        </mxCell>
        <mxCell id="upFs9hlHG09d8Zoyp-7f-11" value="Value" style="rounded=1;whiteSpace=wrap;html=1;fillColor=#fff2cc;strokeColor=#d6b656;" vertex="1" parent="1">
          <mxGeometry x="410" y="655" width="60" height="30" as="geometry" />
        </mxCell>
        <mxCell id="upFs9hlHG09d8Zoyp-7f-12" value="Value" style="rounded=1;whiteSpace=wrap;html=1;fillColor=#fff2cc;strokeColor=#d6b656;" vertex="1" parent="1">
          <mxGeometry x="410" y="715" width="60" height="30" as="geometry" />
        </mxCell>
        <mxCell id="upFs9hlHG09d8Zoyp-7f-13" value="Value" style="rounded=1;whiteSpace=wrap;html=1;fillColor=#fff2cc;strokeColor=#d6b656;" vertex="1" parent="1">
          <mxGeometry x="410" y="775" width="60" height="30" as="geometry" />
        </mxCell>
        <mxCell id="upFs9hlHG09d8Zoyp-7f-24" style="edgeStyle=orthogonalEdgeStyle;rounded=0;orthogonalLoop=1;jettySize=auto;html=1;entryX=0.5;entryY=1;entryDx=0;entryDy=0;" edge="1" parent="1" source="upFs9hlHG09d8Zoyp-7f-14" target="upFs9hlHG09d8Zoyp-7f-15">
          <mxGeometry relative="1" as="geometry" />
        </mxCell>
        <mxCell id="upFs9hlHG09d8Zoyp-7f-14" value="Value" style="rounded=1;whiteSpace=wrap;html=1;fillColor=#fff2cc;strokeColor=#d6b656;" vertex="1" parent="1">
          <mxGeometry x="410" y="835" width="60" height="30" as="geometry" />
        </mxCell>
        <mxCell id="upFs9hlHG09d8Zoyp-7f-15" value="Output" style="rounded=1;whiteSpace=wrap;html=1;" vertex="1" parent="1">
          <mxGeometry x="490" y="550" width="60" height="30" as="geometry" />
        </mxCell>
        <mxCell id="upFs9hlHG09d8Zoyp-7f-17" style="edgeStyle=orthogonalEdgeStyle;rounded=0;orthogonalLoop=1;jettySize=auto;html=1;entryX=0.009;entryY=0.883;entryDx=0;entryDy=0;entryPerimeter=0;" edge="1" parent="1" source="upFs9hlHG09d8Zoyp-7f-8" target="upFs9hlHG09d8Zoyp-7f-1">
          <mxGeometry relative="1" as="geometry" />
        </mxCell>
        <mxCell id="upFs9hlHG09d8Zoyp-7f-18" style="edgeStyle=orthogonalEdgeStyle;rounded=0;orthogonalLoop=1;jettySize=auto;html=1;entryX=-0.018;entryY=0.683;entryDx=0;entryDy=0;entryPerimeter=0;" edge="1" parent="1" source="upFs9hlHG09d8Zoyp-7f-7" target="upFs9hlHG09d8Zoyp-7f-1">
          <mxGeometry relative="1" as="geometry" />
        </mxCell>
        <mxCell id="upFs9hlHG09d8Zoyp-7f-19" style="edgeStyle=orthogonalEdgeStyle;rounded=0;orthogonalLoop=1;jettySize=auto;html=1;" edge="1" parent="1" source="upFs9hlHG09d8Zoyp-7f-6">
          <mxGeometry relative="1" as="geometry">
            <mxPoint x="250" y="735" as="targetPoint" />
          </mxGeometry>
        </mxCell>
        <mxCell id="upFs9hlHG09d8Zoyp-7f-20" style="edgeStyle=orthogonalEdgeStyle;rounded=0;orthogonalLoop=1;jettySize=auto;html=1;entryX=-0.017;entryY=0.285;entryDx=0;entryDy=0;entryPerimeter=0;" edge="1" parent="1" source="upFs9hlHG09d8Zoyp-7f-5" target="upFs9hlHG09d8Zoyp-7f-1">
          <mxGeometry relative="1" as="geometry" />
        </mxCell>
        <mxCell id="upFs9hlHG09d8Zoyp-7f-21" style="edgeStyle=orthogonalEdgeStyle;rounded=0;orthogonalLoop=1;jettySize=auto;html=1;entryX=-0.015;entryY=0.083;entryDx=0;entryDy=0;entryPerimeter=0;" edge="1" parent="1" source="upFs9hlHG09d8Zoyp-7f-3" target="upFs9hlHG09d8Zoyp-7f-1">
          <mxGeometry relative="1" as="geometry" />
        </mxCell>
        <mxCell id="upFs9hlHG09d8Zoyp-7f-23" value="" style="endArrow=none;dashed=1;html=1;rounded=0;exitX=0;exitY=0.5;exitDx=0;exitDy=0;entryX=1;entryY=0.5;entryDx=0;entryDy=0;" edge="1" parent="1" source="upFs9hlHG09d8Zoyp-7f-14" target="upFs9hlHG09d8Zoyp-7f-1">
          <mxGeometry width="50" height="50" relative="1" as="geometry">
            <mxPoint x="290" y="720" as="sourcePoint" />
            <mxPoint x="340" y="670" as="targetPoint" />
          </mxGeometry>
        </mxCell>
        <mxCell id="upFs9hlHG09d8Zoyp-7f-54" style="edgeStyle=orthogonalEdgeStyle;rounded=0;orthogonalLoop=1;jettySize=auto;html=1;entryX=0;entryY=0.5;entryDx=0;entryDy=0;strokeColor=#00994D;flowAnimation=1;" edge="1" parent="1" source="upFs9hlHG09d8Zoyp-7f-27" target="upFs9hlHG09d8Zoyp-7f-34">
          <mxGeometry relative="1" as="geometry" />
        </mxCell>
        <mxCell id="upFs9hlHG09d8Zoyp-7f-27" value="Key" style="rounded=1;whiteSpace=wrap;html=1;fillColor=#d5e8d4;strokeColor=#82b366;" vertex="1" parent="1">
          <mxGeometry x="126" y="1187" width="60" height="30" as="geometry" />
        </mxCell>
        <mxCell id="upFs9hlHG09d8Zoyp-7f-55" style="edgeStyle=orthogonalEdgeStyle;rounded=0;orthogonalLoop=1;jettySize=auto;html=1;entryX=0;entryY=0.5;entryDx=0;entryDy=0;strokeColor=#00994D;flowAnimation=1;" edge="1" parent="1" source="upFs9hlHG09d8Zoyp-7f-28" target="upFs9hlHG09d8Zoyp-7f-35">
          <mxGeometry relative="1" as="geometry" />
        </mxCell>
        <mxCell id="upFs9hlHG09d8Zoyp-7f-28" value="Key" style="rounded=1;whiteSpace=wrap;html=1;fillColor=#d5e8d4;strokeColor=#82b366;" vertex="1" parent="1">
          <mxGeometry x="126" y="1237" width="60" height="30" as="geometry" />
        </mxCell>
        <mxCell id="upFs9hlHG09d8Zoyp-7f-56" style="edgeStyle=orthogonalEdgeStyle;rounded=0;orthogonalLoop=1;jettySize=auto;html=1;entryX=0;entryY=0.5;entryDx=0;entryDy=0;strokeColor=#00994D;flowAnimation=1;" edge="1" parent="1" source="upFs9hlHG09d8Zoyp-7f-29" target="upFs9hlHG09d8Zoyp-7f-36">
          <mxGeometry relative="1" as="geometry" />
        </mxCell>
        <mxCell id="upFs9hlHG09d8Zoyp-7f-29" value="Key" style="rounded=1;whiteSpace=wrap;html=1;fillColor=#d5e8d4;strokeColor=#82b366;" vertex="1" parent="1">
          <mxGeometry x="126" y="1287" width="60" height="30" as="geometry" />
        </mxCell>
        <mxCell id="upFs9hlHG09d8Zoyp-7f-57" style="edgeStyle=orthogonalEdgeStyle;rounded=0;orthogonalLoop=1;jettySize=auto;html=1;strokeColor=#00994D;flowAnimation=1;" edge="1" parent="1" source="upFs9hlHG09d8Zoyp-7f-30" target="upFs9hlHG09d8Zoyp-7f-37">
          <mxGeometry relative="1" as="geometry" />
        </mxCell>
        <mxCell id="upFs9hlHG09d8Zoyp-7f-30" value="Key" style="rounded=1;whiteSpace=wrap;html=1;fillColor=#d5e8d4;strokeColor=#82b366;" vertex="1" parent="1">
          <mxGeometry x="126" y="1337" width="60" height="30" as="geometry" />
        </mxCell>
        <mxCell id="upFs9hlHG09d8Zoyp-7f-58" style="edgeStyle=orthogonalEdgeStyle;rounded=0;orthogonalLoop=1;jettySize=auto;html=1;strokeColor=#00994D;flowAnimation=1;" edge="1" parent="1" source="upFs9hlHG09d8Zoyp-7f-31" target="upFs9hlHG09d8Zoyp-7f-38">
          <mxGeometry relative="1" as="geometry" />
        </mxCell>
        <mxCell id="upFs9hlHG09d8Zoyp-7f-31" value="Key" style="rounded=1;whiteSpace=wrap;html=1;fillColor=#d5e8d4;strokeColor=#82b366;" vertex="1" parent="1">
          <mxGeometry x="126" y="1387" width="60" height="30" as="geometry" />
        </mxCell>
        <mxCell id="upFs9hlHG09d8Zoyp-7f-73" style="edgeStyle=orthogonalEdgeStyle;rounded=0;orthogonalLoop=1;jettySize=auto;html=1;entryX=0;entryY=0.5;entryDx=0;entryDy=0;curved=1;flowAnimation=1;strokeColor=#0063FF;shadow=1;" edge="1" parent="1" source="upFs9hlHG09d8Zoyp-7f-33" target="upFs9hlHG09d8Zoyp-7f-38">
          <mxGeometry relative="1" as="geometry">
            <Array as="points">
              <mxPoint x="206" y="1482" />
              <mxPoint x="206" y="1402" />
            </Array>
          </mxGeometry>
        </mxCell>
        <mxCell id="upFs9hlHG09d8Zoyp-7f-74" style="edgeStyle=orthogonalEdgeStyle;rounded=0;orthogonalLoop=1;jettySize=auto;html=1;entryX=0;entryY=0.5;entryDx=0;entryDy=0;curved=1;flowAnimation=1;strokeColor=#0063FF;shadow=1;" edge="1" parent="1" source="upFs9hlHG09d8Zoyp-7f-33" target="upFs9hlHG09d8Zoyp-7f-37">
          <mxGeometry relative="1" as="geometry" />
        </mxCell>
        <mxCell id="upFs9hlHG09d8Zoyp-7f-75" style="edgeStyle=orthogonalEdgeStyle;rounded=0;orthogonalLoop=1;jettySize=auto;html=1;entryX=0;entryY=0.5;entryDx=0;entryDy=0;curved=1;flowAnimation=1;strokeColor=#0063FF;shadow=1;" edge="1" parent="1" source="upFs9hlHG09d8Zoyp-7f-33" target="upFs9hlHG09d8Zoyp-7f-36">
          <mxGeometry relative="1" as="geometry" />
        </mxCell>
        <mxCell id="upFs9hlHG09d8Zoyp-7f-76" style="edgeStyle=orthogonalEdgeStyle;rounded=0;orthogonalLoop=1;jettySize=auto;html=1;entryX=0;entryY=0.5;entryDx=0;entryDy=0;curved=1;flowAnimation=1;strokeColor=#0063FF;shadow=1;" edge="1" parent="1" source="upFs9hlHG09d8Zoyp-7f-33" target="upFs9hlHG09d8Zoyp-7f-35">
          <mxGeometry relative="1" as="geometry" />
        </mxCell>
        <mxCell id="upFs9hlHG09d8Zoyp-7f-77" style="edgeStyle=orthogonalEdgeStyle;rounded=0;orthogonalLoop=1;jettySize=auto;html=1;entryX=0;entryY=0.5;entryDx=0;entryDy=0;curved=1;flowAnimation=1;strokeColor=#0063FF;shadow=1;" edge="1" parent="1" source="upFs9hlHG09d8Zoyp-7f-33" target="upFs9hlHG09d8Zoyp-7f-34">
          <mxGeometry relative="1" as="geometry" />
        </mxCell>
        <mxCell id="upFs9hlHG09d8Zoyp-7f-33" value="Query" style="rounded=1;whiteSpace=wrap;html=1;fillColor=#dae8fc;strokeColor=#6c8ebf;" vertex="1" parent="1">
          <mxGeometry x="126" y="1467" width="60" height="30" as="geometry" />
        </mxCell>
        <mxCell id="upFs9hlHG09d8Zoyp-7f-59" style="edgeStyle=orthogonalEdgeStyle;rounded=0;orthogonalLoop=1;jettySize=auto;html=1;flowAnimation=1;" edge="1" parent="1" source="upFs9hlHG09d8Zoyp-7f-34">
          <mxGeometry relative="1" as="geometry">
            <mxPoint x="296" y="1202" as="targetPoint" />
          </mxGeometry>
        </mxCell>
        <mxCell id="upFs9hlHG09d8Zoyp-7f-34" value="a" style="ellipse;whiteSpace=wrap;html=1;aspect=fixed;gradientColor=none;shadow=0;fillStyle=auto;" vertex="1" parent="1">
          <mxGeometry x="226" y="1187" width="30" height="30" as="geometry" />
        </mxCell>
        <mxCell id="upFs9hlHG09d8Zoyp-7f-60" style="edgeStyle=orthogonalEdgeStyle;rounded=0;orthogonalLoop=1;jettySize=auto;html=1;flowAnimation=1;" edge="1" parent="1" source="upFs9hlHG09d8Zoyp-7f-35">
          <mxGeometry relative="1" as="geometry">
            <mxPoint x="296" y="1252" as="targetPoint" />
          </mxGeometry>
        </mxCell>
        <mxCell id="upFs9hlHG09d8Zoyp-7f-35" value="a" style="ellipse;whiteSpace=wrap;html=1;aspect=fixed;" vertex="1" parent="1">
          <mxGeometry x="226" y="1237" width="30" height="30" as="geometry" />
        </mxCell>
        <mxCell id="upFs9hlHG09d8Zoyp-7f-61" style="edgeStyle=orthogonalEdgeStyle;rounded=0;orthogonalLoop=1;jettySize=auto;html=1;flowAnimation=1;" edge="1" parent="1" source="upFs9hlHG09d8Zoyp-7f-36">
          <mxGeometry relative="1" as="geometry">
            <mxPoint x="296" y="1302" as="targetPoint" />
          </mxGeometry>
        </mxCell>
        <mxCell id="upFs9hlHG09d8Zoyp-7f-36" value="a" style="ellipse;whiteSpace=wrap;html=1;aspect=fixed;" vertex="1" parent="1">
          <mxGeometry x="226" y="1287" width="30" height="30" as="geometry" />
        </mxCell>
        <mxCell id="upFs9hlHG09d8Zoyp-7f-63" style="edgeStyle=orthogonalEdgeStyle;rounded=0;orthogonalLoop=1;jettySize=auto;html=1;flowAnimation=1;" edge="1" parent="1" source="upFs9hlHG09d8Zoyp-7f-37">
          <mxGeometry relative="1" as="geometry">
            <mxPoint x="296" y="1352" as="targetPoint" />
          </mxGeometry>
        </mxCell>
        <mxCell id="upFs9hlHG09d8Zoyp-7f-37" value="a" style="ellipse;whiteSpace=wrap;html=1;aspect=fixed;" vertex="1" parent="1">
          <mxGeometry x="226" y="1337" width="30" height="30" as="geometry" />
        </mxCell>
        <mxCell id="upFs9hlHG09d8Zoyp-7f-65" style="edgeStyle=orthogonalEdgeStyle;rounded=0;orthogonalLoop=1;jettySize=auto;html=1;flowAnimation=1;" edge="1" parent="1" source="upFs9hlHG09d8Zoyp-7f-38">
          <mxGeometry relative="1" as="geometry">
            <mxPoint x="296" y="1402" as="targetPoint" />
          </mxGeometry>
        </mxCell>
        <mxCell id="upFs9hlHG09d8Zoyp-7f-38" value="a" style="ellipse;whiteSpace=wrap;html=1;aspect=fixed;" vertex="1" parent="1">
          <mxGeometry x="226" y="1387" width="30" height="30" as="geometry" />
        </mxCell>
        <mxCell id="upFs9hlHG09d8Zoyp-7f-40" value="Softmax" style="rounded=1;whiteSpace=wrap;html=1;rotation=90;glass=0;shadow=0;arcSize=50;fillColor=#d0cee2;strokeColor=#56517e;" vertex="1" parent="1">
          <mxGeometry x="193.5" y="1287" width="242.5" height="30" as="geometry" />
        </mxCell>
        <mxCell id="upFs9hlHG09d8Zoyp-7f-88" style="edgeStyle=orthogonalEdgeStyle;rounded=0;orthogonalLoop=1;jettySize=auto;html=1;exitX=1;exitY=0;exitDx=0;exitDy=0;entryX=0.5;entryY=1;entryDx=0;entryDy=0;curved=1;shadow=1;flowAnimation=1;strokeColor=#B85450;" edge="1" parent="1" source="upFs9hlHG09d8Zoyp-7f-41" target="upFs9hlHG09d8Zoyp-7f-46">
          <mxGeometry relative="1" as="geometry" />
        </mxCell>
        <mxCell id="upFs9hlHG09d8Zoyp-7f-41" value="X" style="ellipse;whiteSpace=wrap;html=1;aspect=fixed;" vertex="1" parent="1">
          <mxGeometry x="381" y="1187" width="30" height="30" as="geometry" />
        </mxCell>
        <mxCell id="upFs9hlHG09d8Zoyp-7f-89" style="edgeStyle=orthogonalEdgeStyle;rounded=0;orthogonalLoop=1;jettySize=auto;html=1;exitX=1;exitY=0;exitDx=0;exitDy=0;entryX=0.5;entryY=1;entryDx=0;entryDy=0;curved=1;shadow=1;flowAnimation=1;strokeColor=#B85450;" edge="1" parent="1" source="upFs9hlHG09d8Zoyp-7f-42" target="upFs9hlHG09d8Zoyp-7f-46">
          <mxGeometry relative="1" as="geometry">
            <mxPoint x="456" y="1157" as="targetPoint" />
          </mxGeometry>
        </mxCell>
        <mxCell id="upFs9hlHG09d8Zoyp-7f-42" value="X" style="ellipse;whiteSpace=wrap;html=1;aspect=fixed;" vertex="1" parent="1">
          <mxGeometry x="381" y="1237" width="30" height="30" as="geometry" />
        </mxCell>
        <mxCell id="upFs9hlHG09d8Zoyp-7f-90" style="edgeStyle=orthogonalEdgeStyle;rounded=0;orthogonalLoop=1;jettySize=auto;html=1;exitX=1;exitY=0;exitDx=0;exitDy=0;entryX=0.5;entryY=1;entryDx=0;entryDy=0;curved=1;shadow=1;flowAnimation=1;strokeColor=#B85450;" edge="1" parent="1" source="upFs9hlHG09d8Zoyp-7f-43" target="upFs9hlHG09d8Zoyp-7f-46">
          <mxGeometry relative="1" as="geometry" />
        </mxCell>
        <mxCell id="upFs9hlHG09d8Zoyp-7f-43" value="X" style="ellipse;whiteSpace=wrap;html=1;aspect=fixed;" vertex="1" parent="1">
          <mxGeometry x="381" y="1287" width="30" height="30" as="geometry" />
        </mxCell>
        <mxCell id="upFs9hlHG09d8Zoyp-7f-91" style="edgeStyle=orthogonalEdgeStyle;rounded=0;orthogonalLoop=1;jettySize=auto;html=1;exitX=1;exitY=0;exitDx=0;exitDy=0;entryX=0.5;entryY=1;entryDx=0;entryDy=0;curved=1;shadow=1;flowAnimation=1;strokeColor=#B85450;" edge="1" parent="1" source="upFs9hlHG09d8Zoyp-7f-44" target="upFs9hlHG09d8Zoyp-7f-46">
          <mxGeometry relative="1" as="geometry" />
        </mxCell>
        <mxCell id="upFs9hlHG09d8Zoyp-7f-44" value="X" style="ellipse;whiteSpace=wrap;html=1;aspect=fixed;" vertex="1" parent="1">
          <mxGeometry x="381" y="1337" width="30" height="30" as="geometry" />
        </mxCell>
        <mxCell id="upFs9hlHG09d8Zoyp-7f-92" style="edgeStyle=orthogonalEdgeStyle;rounded=0;orthogonalLoop=1;jettySize=auto;html=1;exitX=1;exitY=0;exitDx=0;exitDy=0;entryX=0.5;entryY=1;entryDx=0;entryDy=0;curved=1;shadow=1;flowAnimation=1;strokeColor=#B85450;" edge="1" parent="1" source="upFs9hlHG09d8Zoyp-7f-45" target="upFs9hlHG09d8Zoyp-7f-46">
          <mxGeometry relative="1" as="geometry" />
        </mxCell>
        <mxCell id="upFs9hlHG09d8Zoyp-7f-45" value="X" style="ellipse;whiteSpace=wrap;html=1;aspect=fixed;" vertex="1" parent="1">
          <mxGeometry x="381" y="1387" width="30" height="30" as="geometry" />
        </mxCell>
        <mxCell id="upFs9hlHG09d8Zoyp-7f-94" style="edgeStyle=orthogonalEdgeStyle;rounded=0;orthogonalLoop=1;jettySize=auto;html=1;entryX=0;entryY=0.5;entryDx=0;entryDy=0;flowAnimation=1;shadow=1;fillColor=#f8cecc;strokeColor=#b85450;" edge="1" parent="1" source="upFs9hlHG09d8Zoyp-7f-46" target="upFs9hlHG09d8Zoyp-7f-52">
          <mxGeometry relative="1" as="geometry" />
        </mxCell>
        <mxCell id="upFs9hlHG09d8Zoyp-7f-46" value="+" style="ellipse;whiteSpace=wrap;html=1;aspect=fixed;fillColor=#f8cecc;strokeColor=#b85450;" vertex="1" parent="1">
          <mxGeometry x="426" y="1127" width="30" height="30" as="geometry" />
        </mxCell>
        <mxCell id="upFs9hlHG09d8Zoyp-7f-83" style="edgeStyle=orthogonalEdgeStyle;rounded=0;orthogonalLoop=1;jettySize=auto;html=1;entryX=1;entryY=0.5;entryDx=0;entryDy=0;flowAnimation=1;" edge="1" parent="1" source="upFs9hlHG09d8Zoyp-7f-47" target="upFs9hlHG09d8Zoyp-7f-41">
          <mxGeometry relative="1" as="geometry">
            <mxPoint x="416" y="1202" as="targetPoint" />
          </mxGeometry>
        </mxCell>
        <mxCell id="upFs9hlHG09d8Zoyp-7f-47" value="Value" style="rounded=1;whiteSpace=wrap;html=1;fillColor=#fff2cc;strokeColor=#d6b656;" vertex="1" parent="1">
          <mxGeometry x="466" y="1187" width="60" height="30" as="geometry" />
        </mxCell>
        <mxCell id="upFs9hlHG09d8Zoyp-7f-84" style="edgeStyle=orthogonalEdgeStyle;rounded=0;orthogonalLoop=1;jettySize=auto;html=1;entryX=1;entryY=0.5;entryDx=0;entryDy=0;flowAnimation=1;" edge="1" parent="1" source="upFs9hlHG09d8Zoyp-7f-48" target="upFs9hlHG09d8Zoyp-7f-42">
          <mxGeometry relative="1" as="geometry">
            <mxPoint x="416" y="1252" as="targetPoint" />
          </mxGeometry>
        </mxCell>
        <mxCell id="upFs9hlHG09d8Zoyp-7f-48" value="Value" style="rounded=1;whiteSpace=wrap;html=1;fillColor=#fff2cc;strokeColor=#d6b656;" vertex="1" parent="1">
          <mxGeometry x="466" y="1237" width="60" height="30" as="geometry" />
        </mxCell>
        <mxCell id="upFs9hlHG09d8Zoyp-7f-85" style="edgeStyle=orthogonalEdgeStyle;rounded=0;orthogonalLoop=1;jettySize=auto;html=1;entryX=1;entryY=0.5;entryDx=0;entryDy=0;flowAnimation=1;" edge="1" parent="1" source="upFs9hlHG09d8Zoyp-7f-49" target="upFs9hlHG09d8Zoyp-7f-43">
          <mxGeometry relative="1" as="geometry">
            <mxPoint x="416" y="1302" as="targetPoint" />
          </mxGeometry>
        </mxCell>
        <mxCell id="upFs9hlHG09d8Zoyp-7f-49" value="Value" style="rounded=1;whiteSpace=wrap;html=1;fillColor=#fff2cc;strokeColor=#d6b656;" vertex="1" parent="1">
          <mxGeometry x="466" y="1287" width="60" height="30" as="geometry" />
        </mxCell>
        <mxCell id="upFs9hlHG09d8Zoyp-7f-86" style="edgeStyle=orthogonalEdgeStyle;rounded=0;orthogonalLoop=1;jettySize=auto;html=1;entryX=1;entryY=0.5;entryDx=0;entryDy=0;flowAnimation=1;" edge="1" parent="1" source="upFs9hlHG09d8Zoyp-7f-50" target="upFs9hlHG09d8Zoyp-7f-44">
          <mxGeometry relative="1" as="geometry" />
        </mxCell>
        <mxCell id="upFs9hlHG09d8Zoyp-7f-50" value="Value" style="rounded=1;whiteSpace=wrap;html=1;fillColor=#fff2cc;strokeColor=#d6b656;" vertex="1" parent="1">
          <mxGeometry x="466" y="1337" width="60" height="30" as="geometry" />
        </mxCell>
        <mxCell id="upFs9hlHG09d8Zoyp-7f-87" style="edgeStyle=orthogonalEdgeStyle;rounded=0;orthogonalLoop=1;jettySize=auto;html=1;entryX=1;entryY=0.5;entryDx=0;entryDy=0;flowAnimation=1;" edge="1" parent="1" source="upFs9hlHG09d8Zoyp-7f-51" target="upFs9hlHG09d8Zoyp-7f-45">
          <mxGeometry relative="1" as="geometry" />
        </mxCell>
        <mxCell id="upFs9hlHG09d8Zoyp-7f-51" value="Value" style="rounded=1;whiteSpace=wrap;html=1;fillColor=#fff2cc;strokeColor=#d6b656;" vertex="1" parent="1">
          <mxGeometry x="466" y="1387" width="60" height="30" as="geometry" />
        </mxCell>
        <mxCell id="upFs9hlHG09d8Zoyp-7f-52" value="Output" style="rounded=1;whiteSpace=wrap;html=1;fillColor=#f8cecc;strokeColor=#b85450;" vertex="1" parent="1">
          <mxGeometry x="536" y="1127" width="60" height="30" as="geometry" />
        </mxCell>
        <mxCell id="upFs9hlHG09d8Zoyp-7f-78" value="" style="endArrow=classic;html=1;rounded=0;entryX=0;entryY=0.5;entryDx=0;entryDy=0;exitX=0.088;exitY=0.008;exitDx=0;exitDy=0;exitPerimeter=0;flowAnimation=1;" edge="1" parent="1" source="upFs9hlHG09d8Zoyp-7f-40" target="upFs9hlHG09d8Zoyp-7f-41">
          <mxGeometry width="50" height="50" relative="1" as="geometry">
            <mxPoint x="336" y="1207" as="sourcePoint" />
            <mxPoint x="396" y="1237" as="targetPoint" />
          </mxGeometry>
        </mxCell>
        <mxCell id="upFs9hlHG09d8Zoyp-7f-79" value="" style="endArrow=classic;html=1;rounded=0;entryX=0;entryY=0.5;entryDx=0;entryDy=0;exitX=0.088;exitY=0.008;exitDx=0;exitDy=0;exitPerimeter=0;flowAnimation=1;" edge="1" parent="1">
          <mxGeometry width="50" height="50" relative="1" as="geometry">
            <mxPoint x="330" y="1301.86" as="sourcePoint" />
            <mxPoint x="381" y="1301.86" as="targetPoint" />
          </mxGeometry>
        </mxCell>
        <mxCell id="upFs9hlHG09d8Zoyp-7f-80" value="" style="endArrow=classic;html=1;rounded=0;entryX=0;entryY=0.5;entryDx=0;entryDy=0;exitX=0.088;exitY=0.008;exitDx=0;exitDy=0;exitPerimeter=0;flowAnimation=1;" edge="1" parent="1">
          <mxGeometry width="50" height="50" relative="1" as="geometry">
            <mxPoint x="330" y="1251.86" as="sourcePoint" />
            <mxPoint x="381" y="1251.86" as="targetPoint" />
          </mxGeometry>
        </mxCell>
        <mxCell id="upFs9hlHG09d8Zoyp-7f-81" value="" style="endArrow=classic;html=1;rounded=0;entryX=0;entryY=0.5;entryDx=0;entryDy=0;exitX=0.088;exitY=0.008;exitDx=0;exitDy=0;exitPerimeter=0;flowAnimation=1;" edge="1" parent="1">
          <mxGeometry width="50" height="50" relative="1" as="geometry">
            <mxPoint x="330" y="1351.86" as="sourcePoint" />
            <mxPoint x="381" y="1351.86" as="targetPoint" />
          </mxGeometry>
        </mxCell>
        <mxCell id="upFs9hlHG09d8Zoyp-7f-82" value="" style="endArrow=classic;html=1;rounded=0;entryX=0;entryY=0.5;entryDx=0;entryDy=0;exitX=0.088;exitY=0.008;exitDx=0;exitDy=0;exitPerimeter=0;flowAnimation=1;" edge="1" parent="1">
          <mxGeometry width="50" height="50" relative="1" as="geometry">
            <mxPoint x="330" y="1401.86" as="sourcePoint" />
            <mxPoint x="381" y="1401.86" as="targetPoint" />
          </mxGeometry>
        </mxCell>
        <mxCell id="upFs9hlHG09d8Zoyp-7f-97" value="attention scoring&lt;div&gt;&amp;nbsp;function&lt;/div&gt;" style="text;html=1;align=center;verticalAlign=middle;whiteSpace=wrap;rounded=0;" vertex="1" parent="1">
          <mxGeometry x="190.5" y="1140" width="101" height="30" as="geometry" />
        </mxCell>
        <mxCell id="upFs9hlHG09d8Zoyp-7f-98" value="attention weight" style="text;html=1;align=center;verticalAlign=middle;whiteSpace=wrap;rounded=0;rotation=0;" vertex="1" parent="1">
          <mxGeometry x="320" y="1140" width="88" height="30" as="geometry" />
        </mxCell>
        <mxCell id="upFs9hlHG09d8Zoyp-7f-113" style="edgeStyle=orthogonalEdgeStyle;rounded=0;orthogonalLoop=1;jettySize=auto;html=1;entryX=0.5;entryY=1;entryDx=0;entryDy=0;fillColor=#e1d5e7;strokeColor=#9673a6;" edge="1" parent="1" source="upFs9hlHG09d8Zoyp-7f-99" target="upFs9hlHG09d8Zoyp-7f-100">
          <mxGeometry relative="1" as="geometry" />
        </mxCell>
        <mxCell id="upFs9hlHG09d8Zoyp-7f-99" value="MatMul" style="rounded=1;whiteSpace=wrap;html=1;fillColor=#d0cee2;strokeColor=#56517e;" vertex="1" parent="1">
          <mxGeometry x="110" y="1793" width="100" height="30" as="geometry" />
        </mxCell>
        <mxCell id="upFs9hlHG09d8Zoyp-7f-114" style="edgeStyle=orthogonalEdgeStyle;rounded=0;orthogonalLoop=1;jettySize=auto;html=1;entryX=0.5;entryY=1;entryDx=0;entryDy=0;fillColor=#fff2cc;strokeColor=#d6b656;" edge="1" parent="1" source="upFs9hlHG09d8Zoyp-7f-100" target="upFs9hlHG09d8Zoyp-7f-101">
          <mxGeometry relative="1" as="geometry" />
        </mxCell>
        <mxCell id="upFs9hlHG09d8Zoyp-7f-100" value="Scale" style="rounded=1;whiteSpace=wrap;html=1;fillColor=#fff2cc;strokeColor=#d6b656;" vertex="1" parent="1">
          <mxGeometry x="130" y="1740" width="60" height="30" as="geometry" />
        </mxCell>
        <mxCell id="upFs9hlHG09d8Zoyp-7f-115" style="edgeStyle=orthogonalEdgeStyle;rounded=0;orthogonalLoop=1;jettySize=auto;html=1;entryX=0.5;entryY=1;entryDx=0;entryDy=0;fillColor=#f8cecc;strokeColor=#b85450;" edge="1" parent="1" source="upFs9hlHG09d8Zoyp-7f-101" target="upFs9hlHG09d8Zoyp-7f-102">
          <mxGeometry relative="1" as="geometry" />
        </mxCell>
        <mxCell id="upFs9hlHG09d8Zoyp-7f-101" value="Masked(opt.)" style="rounded=1;whiteSpace=wrap;html=1;fillColor=#f8cecc;strokeColor=#b85450;" vertex="1" parent="1">
          <mxGeometry x="110" y="1687" width="100" height="30" as="geometry" />
        </mxCell>
        <mxCell id="upFs9hlHG09d8Zoyp-7f-116" style="edgeStyle=orthogonalEdgeStyle;rounded=0;orthogonalLoop=1;jettySize=auto;html=1;entryX=0.25;entryY=1;entryDx=0;entryDy=0;fillColor=#d5e8d4;strokeColor=#82b366;" edge="1" parent="1" source="upFs9hlHG09d8Zoyp-7f-102" target="upFs9hlHG09d8Zoyp-7f-103">
          <mxGeometry relative="1" as="geometry">
            <Array as="points">
              <mxPoint x="160" y="1624" />
              <mxPoint x="187" y="1624" />
            </Array>
          </mxGeometry>
        </mxCell>
        <mxCell id="upFs9hlHG09d8Zoyp-7f-102" value="Softmax" style="rounded=1;whiteSpace=wrap;html=1;fillColor=#d5e8d4;strokeColor=#82b366;" vertex="1" parent="1">
          <mxGeometry x="120" y="1633" width="80" height="30" as="geometry" />
        </mxCell>
        <mxCell id="upFs9hlHG09d8Zoyp-7f-118" style="edgeStyle=orthogonalEdgeStyle;rounded=0;orthogonalLoop=1;jettySize=auto;html=1;fillColor=#e1d5e7;strokeColor=#9673a6;" edge="1" parent="1" source="upFs9hlHG09d8Zoyp-7f-103">
          <mxGeometry relative="1" as="geometry">
            <mxPoint x="212" y="1554" as="targetPoint" />
          </mxGeometry>
        </mxCell>
        <mxCell id="upFs9hlHG09d8Zoyp-7f-103" value="MatMul" style="rounded=1;whiteSpace=wrap;html=1;fillColor=#d0cee2;strokeColor=#56517e;" vertex="1" parent="1">
          <mxGeometry x="162" y="1579" width="100" height="30" as="geometry" />
        </mxCell>
        <mxCell id="upFs9hlHG09d8Zoyp-7f-128" style="edgeStyle=orthogonalEdgeStyle;rounded=0;orthogonalLoop=1;jettySize=auto;html=1;fillColor=#dae8fc;strokeColor=#6c8ebf;" edge="1" parent="1" source="upFs9hlHG09d8Zoyp-7f-105">
          <mxGeometry relative="1" as="geometry">
            <mxPoint x="128" y="1823.6666666666665" as="targetPoint" />
          </mxGeometry>
        </mxCell>
        <mxCell id="upFs9hlHG09d8Zoyp-7f-105" value="Q" style="rounded=1;whiteSpace=wrap;html=1;fillColor=#dae8fc;strokeColor=#6c8ebf;" vertex="1" parent="1">
          <mxGeometry x="113" y="1846" width="30" height="30" as="geometry" />
        </mxCell>
        <mxCell id="upFs9hlHG09d8Zoyp-7f-129" style="edgeStyle=orthogonalEdgeStyle;rounded=0;orthogonalLoop=1;jettySize=auto;html=1;entryX=0.75;entryY=1;entryDx=0;entryDy=0;fillColor=#dae8fc;strokeColor=#6c8ebf;" edge="1" parent="1" source="upFs9hlHG09d8Zoyp-7f-106" target="upFs9hlHG09d8Zoyp-7f-99">
          <mxGeometry relative="1" as="geometry" />
        </mxCell>
        <mxCell id="upFs9hlHG09d8Zoyp-7f-106" value="K" style="rounded=1;whiteSpace=wrap;html=1;fillColor=#dae8fc;strokeColor=#6c8ebf;" vertex="1" parent="1">
          <mxGeometry x="170" y="1846" width="30" height="30" as="geometry" />
        </mxCell>
        <mxCell id="upFs9hlHG09d8Zoyp-7f-130" style="edgeStyle=orthogonalEdgeStyle;rounded=0;orthogonalLoop=1;jettySize=auto;html=1;fillColor=#dae8fc;strokeColor=#6c8ebf;" edge="1" parent="1" source="upFs9hlHG09d8Zoyp-7f-107">
          <mxGeometry relative="1" as="geometry">
            <mxPoint x="241" y="1609.6666666666667" as="targetPoint" />
          </mxGeometry>
        </mxCell>
        <mxCell id="upFs9hlHG09d8Zoyp-7f-107" value="V" style="rounded=1;whiteSpace=wrap;html=1;fillColor=#dae8fc;strokeColor=#6c8ebf;" vertex="1" parent="1">
          <mxGeometry x="226" y="1846" width="30" height="30" as="geometry" />
        </mxCell>
        <mxCell id="upFs9hlHG09d8Zoyp-7f-126" style="edgeStyle=orthogonalEdgeStyle;rounded=0;orthogonalLoop=1;jettySize=auto;html=1;entryX=0.5;entryY=1;entryDx=0;entryDy=0;fillColor=#b1ddf0;strokeColor=#10739e;" edge="1" parent="1" source="upFs9hlHG09d8Zoyp-7f-119" target="upFs9hlHG09d8Zoyp-7f-105">
          <mxGeometry relative="1" as="geometry" />
        </mxCell>
        <mxCell id="upFs9hlHG09d8Zoyp-7f-119" value="Linear" style="rounded=1;whiteSpace=wrap;html=1;fillColor=#b1ddf0;strokeColor=#10739e;" vertex="1" parent="1">
          <mxGeometry x="103" y="1897" width="50" height="30" as="geometry" />
        </mxCell>
        <mxCell id="upFs9hlHG09d8Zoyp-7f-124" style="edgeStyle=orthogonalEdgeStyle;rounded=0;orthogonalLoop=1;jettySize=auto;html=1;entryX=0.5;entryY=1;entryDx=0;entryDy=0;fillColor=#b1ddf0;strokeColor=#10739e;" edge="1" parent="1" source="upFs9hlHG09d8Zoyp-7f-122" target="upFs9hlHG09d8Zoyp-7f-106">
          <mxGeometry relative="1" as="geometry" />
        </mxCell>
        <mxCell id="upFs9hlHG09d8Zoyp-7f-122" value="Linear" style="rounded=1;whiteSpace=wrap;html=1;fillColor=#b1ddf0;strokeColor=#10739e;" vertex="1" parent="1">
          <mxGeometry x="160" y="1897" width="50" height="30" as="geometry" />
        </mxCell>
        <mxCell id="upFs9hlHG09d8Zoyp-7f-125" style="edgeStyle=orthogonalEdgeStyle;rounded=0;orthogonalLoop=1;jettySize=auto;html=1;entryX=0.5;entryY=1;entryDx=0;entryDy=0;fillColor=#b1ddf0;strokeColor=#10739e;" edge="1" parent="1" source="upFs9hlHG09d8Zoyp-7f-123" target="upFs9hlHG09d8Zoyp-7f-107">
          <mxGeometry relative="1" as="geometry" />
        </mxCell>
        <mxCell id="upFs9hlHG09d8Zoyp-7f-123" value="Linear" style="rounded=1;whiteSpace=wrap;html=1;fillColor=#b1ddf0;strokeColor=#10739e;" vertex="1" parent="1">
          <mxGeometry x="216" y="1897" width="50" height="30" as="geometry" />
        </mxCell>
        <mxCell id="upFs9hlHG09d8Zoyp-7f-132" style="edgeStyle=orthogonalEdgeStyle;rounded=0;orthogonalLoop=1;jettySize=auto;html=1;entryX=0.5;entryY=1;entryDx=0;entryDy=0;" edge="1" parent="1" source="upFs9hlHG09d8Zoyp-7f-131" target="upFs9hlHG09d8Zoyp-7f-119">
          <mxGeometry relative="1" as="geometry" />
        </mxCell>
        <mxCell id="upFs9hlHG09d8Zoyp-7f-131" value="X" style="rounded=1;whiteSpace=wrap;html=1;" vertex="1" parent="1">
          <mxGeometry x="113" y="1948" width="30" height="30" as="geometry" />
        </mxCell>
        <mxCell id="upFs9hlHG09d8Zoyp-7f-137" style="edgeStyle=orthogonalEdgeStyle;rounded=0;orthogonalLoop=1;jettySize=auto;html=1;entryX=0.5;entryY=1;entryDx=0;entryDy=0;" edge="1" parent="1" source="upFs9hlHG09d8Zoyp-7f-133" target="upFs9hlHG09d8Zoyp-7f-122">
          <mxGeometry relative="1" as="geometry" />
        </mxCell>
        <mxCell id="upFs9hlHG09d8Zoyp-7f-133" value="X" style="rounded=1;whiteSpace=wrap;html=1;" vertex="1" parent="1">
          <mxGeometry x="170" y="1948" width="30" height="30" as="geometry" />
        </mxCell>
        <mxCell id="upFs9hlHG09d8Zoyp-7f-136" style="edgeStyle=orthogonalEdgeStyle;rounded=0;orthogonalLoop=1;jettySize=auto;html=1;entryX=0.5;entryY=1;entryDx=0;entryDy=0;" edge="1" parent="1" source="upFs9hlHG09d8Zoyp-7f-134" target="upFs9hlHG09d8Zoyp-7f-123">
          <mxGeometry relative="1" as="geometry" />
        </mxCell>
        <mxCell id="upFs9hlHG09d8Zoyp-7f-134" value="X" style="rounded=1;whiteSpace=wrap;html=1;" vertex="1" parent="1">
          <mxGeometry x="226" y="1948" width="30" height="30" as="geometry" />
        </mxCell>
        <mxCell id="upFs9hlHG09d8Zoyp-7f-139" value="&lt;font style=&quot;font-size: 16px;&quot;&gt;Scaled&amp;nbsp;&lt;/font&gt;&lt;div&gt;&lt;font style=&quot;font-size: 16px;&quot;&gt;Dot-Product&amp;nbsp;&lt;/font&gt;&lt;div&gt;&lt;font style=&quot;font-size: 16px;&quot;&gt;Attention&lt;/font&gt;&lt;/div&gt;&lt;/div&gt;" style="text;html=1;align=center;verticalAlign=middle;resizable=0;points=[];autosize=1;strokeColor=none;fillColor=none;" vertex="1" parent="1">
          <mxGeometry x="284" y="1593" width="108" height="70" as="geometry" />
        </mxCell>
        <mxCell id="upFs9hlHG09d8Zoyp-7f-158" style="edgeStyle=orthogonalEdgeStyle;rounded=0;orthogonalLoop=1;jettySize=auto;html=1;entryX=0.5;entryY=1;entryDx=0;entryDy=0;fillColor=#cce5ff;strokeColor=#36393d;flowAnimation=0;" edge="1" parent="1" source="upFs9hlHG09d8Zoyp-7f-140" target="upFs9hlHG09d8Zoyp-7f-144">
          <mxGeometry relative="1" as="geometry" />
        </mxCell>
        <mxCell id="upFs9hlHG09d8Zoyp-7f-140" value="Q" style="rounded=1;whiteSpace=wrap;html=1;fillColor=#dae8fc;strokeColor=#6c8ebf;" vertex="1" parent="1">
          <mxGeometry x="103.5" y="2923" width="30" height="30" as="geometry" />
        </mxCell>
        <mxCell id="upFs9hlHG09d8Zoyp-7f-159" style="edgeStyle=orthogonalEdgeStyle;rounded=0;orthogonalLoop=1;jettySize=auto;html=1;entryX=0.5;entryY=1;entryDx=0;entryDy=0;fillColor=#cce5ff;strokeColor=#36393d;flowAnimation=0;" edge="1" parent="1" source="upFs9hlHG09d8Zoyp-7f-141" target="upFs9hlHG09d8Zoyp-7f-146">
          <mxGeometry relative="1" as="geometry" />
        </mxCell>
        <mxCell id="upFs9hlHG09d8Zoyp-7f-141" value="K" style="rounded=1;whiteSpace=wrap;html=1;fillColor=#dae8fc;strokeColor=#6c8ebf;" vertex="1" parent="1">
          <mxGeometry x="160.5" y="2923" width="30" height="30" as="geometry" />
        </mxCell>
        <mxCell id="upFs9hlHG09d8Zoyp-7f-160" style="edgeStyle=orthogonalEdgeStyle;rounded=0;orthogonalLoop=1;jettySize=auto;html=1;entryX=0.5;entryY=1;entryDx=0;entryDy=0;fillColor=#cce5ff;strokeColor=#36393d;flowAnimation=0;" edge="1" parent="1" source="upFs9hlHG09d8Zoyp-7f-142" target="upFs9hlHG09d8Zoyp-7f-148">
          <mxGeometry relative="1" as="geometry" />
        </mxCell>
        <mxCell id="upFs9hlHG09d8Zoyp-7f-142" value="V" style="rounded=1;whiteSpace=wrap;html=1;fillColor=#dae8fc;strokeColor=#6c8ebf;" vertex="1" parent="1">
          <mxGeometry x="216.5" y="2923" width="30" height="30" as="geometry" />
        </mxCell>
        <mxCell id="upFs9hlHG09d8Zoyp-7f-144" value="Linear" style="rounded=1;whiteSpace=wrap;html=1;fillColor=#b1ddf0;strokeColor=#10739e;" vertex="1" parent="1">
          <mxGeometry x="93.5" y="2867" width="50" height="30" as="geometry" />
        </mxCell>
        <mxCell id="upFs9hlHG09d8Zoyp-7f-156" style="edgeStyle=orthogonalEdgeStyle;rounded=0;orthogonalLoop=1;jettySize=auto;html=1;entryX=0.5;entryY=1;entryDx=0;entryDy=0;fillColor=#b0e3e6;strokeColor=#0e8088;flowAnimation=0;" edge="1" parent="1" source="upFs9hlHG09d8Zoyp-7f-146" target="upFs9hlHG09d8Zoyp-7f-152">
          <mxGeometry relative="1" as="geometry" />
        </mxCell>
        <mxCell id="upFs9hlHG09d8Zoyp-7f-146" value="Linear" style="rounded=1;whiteSpace=wrap;html=1;fillColor=#b1ddf0;strokeColor=#10739e;" vertex="1" parent="1">
          <mxGeometry x="150.5" y="2867" width="50" height="30" as="geometry" />
        </mxCell>
        <mxCell id="upFs9hlHG09d8Zoyp-7f-148" value="Linear" style="rounded=1;whiteSpace=wrap;html=1;fillColor=#b1ddf0;strokeColor=#10739e;" vertex="1" parent="1">
          <mxGeometry x="206.5" y="2867" width="50" height="30" as="geometry" />
        </mxCell>
        <mxCell id="upFs9hlHG09d8Zoyp-7f-179" style="edgeStyle=orthogonalEdgeStyle;rounded=0;orthogonalLoop=1;jettySize=auto;html=1;fillColor=#d0cee2;strokeColor=#56517e;flowAnimation=0;" edge="1" parent="1" source="upFs9hlHG09d8Zoyp-7f-152">
          <mxGeometry relative="1" as="geometry">
            <mxPoint x="175.5" y="2780.6190476190477" as="targetPoint" />
          </mxGeometry>
        </mxCell>
        <mxCell id="upFs9hlHG09d8Zoyp-7f-152" value="Attention" style="rounded=1;whiteSpace=wrap;html=1;fillColor=#d0cee2;strokeColor=#56517e;" vertex="1" parent="1">
          <mxGeometry x="75.5" y="2818" width="200" height="30" as="geometry" />
        </mxCell>
        <mxCell id="upFs9hlHG09d8Zoyp-7f-155" style="edgeStyle=orthogonalEdgeStyle;rounded=0;orthogonalLoop=1;jettySize=auto;html=1;entryX=0.214;entryY=0.967;entryDx=0;entryDy=0;entryPerimeter=0;fillColor=#b0e3e6;strokeColor=#0e8088;flowAnimation=0;" edge="1" parent="1" source="upFs9hlHG09d8Zoyp-7f-144" target="upFs9hlHG09d8Zoyp-7f-152">
          <mxGeometry relative="1" as="geometry" />
        </mxCell>
        <mxCell id="upFs9hlHG09d8Zoyp-7f-157" style="edgeStyle=orthogonalEdgeStyle;rounded=0;orthogonalLoop=1;jettySize=auto;html=1;entryX=0.778;entryY=0.947;entryDx=0;entryDy=0;entryPerimeter=0;fillColor=#b0e3e6;strokeColor=#0e8088;flowAnimation=0;" edge="1" parent="1" source="upFs9hlHG09d8Zoyp-7f-148" target="upFs9hlHG09d8Zoyp-7f-152">
          <mxGeometry relative="1" as="geometry" />
        </mxCell>
        <mxCell id="upFs9hlHG09d8Zoyp-7f-161" style="edgeStyle=orthogonalEdgeStyle;rounded=0;orthogonalLoop=1;jettySize=auto;html=1;entryX=0.5;entryY=1;entryDx=0;entryDy=0;fillColor=#cce5ff;strokeColor=#36393d;flowAnimation=0;" edge="1" parent="1" source="upFs9hlHG09d8Zoyp-7f-162" target="upFs9hlHG09d8Zoyp-7f-167">
          <mxGeometry relative="1" as="geometry" />
        </mxCell>
        <mxCell id="upFs9hlHG09d8Zoyp-7f-162" value="Q" style="rounded=1;whiteSpace=wrap;html=1;fillColor=#dae8fc;strokeColor=#6c8ebf;" vertex="1" parent="1">
          <mxGeometry x="403.5" y="2923" width="30" height="30" as="geometry" />
        </mxCell>
        <mxCell id="upFs9hlHG09d8Zoyp-7f-163" style="edgeStyle=orthogonalEdgeStyle;rounded=0;orthogonalLoop=1;jettySize=auto;html=1;entryX=0.5;entryY=1;entryDx=0;entryDy=0;fillColor=#cce5ff;strokeColor=#36393d;flowAnimation=0;" edge="1" parent="1" source="upFs9hlHG09d8Zoyp-7f-164" target="upFs9hlHG09d8Zoyp-7f-169">
          <mxGeometry relative="1" as="geometry" />
        </mxCell>
        <mxCell id="upFs9hlHG09d8Zoyp-7f-164" value="K" style="rounded=1;whiteSpace=wrap;html=1;fillColor=#dae8fc;strokeColor=#6c8ebf;" vertex="1" parent="1">
          <mxGeometry x="460.5" y="2923" width="30" height="30" as="geometry" />
        </mxCell>
        <mxCell id="upFs9hlHG09d8Zoyp-7f-165" style="edgeStyle=orthogonalEdgeStyle;rounded=0;orthogonalLoop=1;jettySize=auto;html=1;entryX=0.5;entryY=1;entryDx=0;entryDy=0;fillColor=#cce5ff;strokeColor=#36393d;flowAnimation=0;" edge="1" parent="1" source="upFs9hlHG09d8Zoyp-7f-166" target="upFs9hlHG09d8Zoyp-7f-170">
          <mxGeometry relative="1" as="geometry" />
        </mxCell>
        <mxCell id="upFs9hlHG09d8Zoyp-7f-166" value="V" style="rounded=1;whiteSpace=wrap;html=1;fillColor=#dae8fc;strokeColor=#6c8ebf;" vertex="1" parent="1">
          <mxGeometry x="516.5" y="2923" width="30" height="30" as="geometry" />
        </mxCell>
        <mxCell id="upFs9hlHG09d8Zoyp-7f-167" value="Linear" style="rounded=1;whiteSpace=wrap;html=1;fillColor=#b1ddf0;strokeColor=#10739e;" vertex="1" parent="1">
          <mxGeometry x="393.5" y="2867" width="50" height="30" as="geometry" />
        </mxCell>
        <mxCell id="upFs9hlHG09d8Zoyp-7f-168" style="edgeStyle=orthogonalEdgeStyle;rounded=0;orthogonalLoop=1;jettySize=auto;html=1;entryX=0.5;entryY=1;entryDx=0;entryDy=0;fillColor=#b0e3e6;strokeColor=#0e8088;flowAnimation=0;" edge="1" parent="1" source="upFs9hlHG09d8Zoyp-7f-169" target="upFs9hlHG09d8Zoyp-7f-171">
          <mxGeometry relative="1" as="geometry" />
        </mxCell>
        <mxCell id="upFs9hlHG09d8Zoyp-7f-169" value="Linear" style="rounded=1;whiteSpace=wrap;html=1;fillColor=#b1ddf0;strokeColor=#10739e;" vertex="1" parent="1">
          <mxGeometry x="450.5" y="2867" width="50" height="30" as="geometry" />
        </mxCell>
        <mxCell id="upFs9hlHG09d8Zoyp-7f-170" value="Linear" style="rounded=1;whiteSpace=wrap;html=1;fillColor=#b1ddf0;strokeColor=#10739e;" vertex="1" parent="1">
          <mxGeometry x="506.5" y="2867" width="50" height="30" as="geometry" />
        </mxCell>
        <mxCell id="upFs9hlHG09d8Zoyp-7f-171" value="Attention" style="rounded=1;whiteSpace=wrap;html=1;fillColor=#d0cee2;strokeColor=#56517e;" vertex="1" parent="1">
          <mxGeometry x="375.5" y="2818" width="200" height="30" as="geometry" />
        </mxCell>
        <mxCell id="upFs9hlHG09d8Zoyp-7f-172" style="edgeStyle=orthogonalEdgeStyle;rounded=0;orthogonalLoop=1;jettySize=auto;html=1;entryX=0.214;entryY=0.967;entryDx=0;entryDy=0;entryPerimeter=0;fillColor=#b0e3e6;strokeColor=#0e8088;flowAnimation=0;" edge="1" parent="1" source="upFs9hlHG09d8Zoyp-7f-167" target="upFs9hlHG09d8Zoyp-7f-171">
          <mxGeometry relative="1" as="geometry" />
        </mxCell>
        <mxCell id="upFs9hlHG09d8Zoyp-7f-173" style="edgeStyle=orthogonalEdgeStyle;rounded=0;orthogonalLoop=1;jettySize=auto;html=1;entryX=0.778;entryY=0.947;entryDx=0;entryDy=0;entryPerimeter=0;fillColor=#b0e3e6;strokeColor=#0e8088;flowAnimation=0;" edge="1" parent="1" source="upFs9hlHG09d8Zoyp-7f-170" target="upFs9hlHG09d8Zoyp-7f-171">
          <mxGeometry relative="1" as="geometry" />
        </mxCell>
        <mxCell id="upFs9hlHG09d8Zoyp-7f-174" value="..." style="text;html=1;align=center;verticalAlign=middle;resizable=0;points=[];autosize=1;strokeColor=none;fillColor=none;" vertex="1" parent="1">
          <mxGeometry x="311.5" y="2869" width="28" height="26" as="geometry" />
        </mxCell>
        <mxCell id="upFs9hlHG09d8Zoyp-7f-180" style="edgeStyle=orthogonalEdgeStyle;rounded=0;orthogonalLoop=1;jettySize=auto;html=1;entryX=0.5;entryY=1;entryDx=0;entryDy=0;fillColor=#fad7ac;strokeColor=#b46504;flowAnimation=0;" edge="1" parent="1" source="upFs9hlHG09d8Zoyp-7f-175" target="upFs9hlHG09d8Zoyp-7f-176">
          <mxGeometry relative="1" as="geometry" />
        </mxCell>
        <mxCell id="upFs9hlHG09d8Zoyp-7f-175" value="Concat" style="rounded=1;whiteSpace=wrap;html=1;fillColor=#fad7ac;strokeColor=#b46504;" vertex="1" parent="1">
          <mxGeometry x="75.5" y="2750" width="500" height="30" as="geometry" />
        </mxCell>
        <mxCell id="upFs9hlHG09d8Zoyp-7f-181" style="edgeStyle=orthogonalEdgeStyle;rounded=0;orthogonalLoop=1;jettySize=auto;html=1;fillColor=#b1ddf0;strokeColor=#10739e;flowAnimation=0;" edge="1" parent="1" source="upFs9hlHG09d8Zoyp-7f-176">
          <mxGeometry relative="1" as="geometry">
            <mxPoint x="325.5" y="2661.3333333333335" as="targetPoint" />
          </mxGeometry>
        </mxCell>
        <mxCell id="upFs9hlHG09d8Zoyp-7f-176" value="Linear" style="rounded=1;whiteSpace=wrap;html=1;fillColor=#b1ddf0;strokeColor=#10739e;" vertex="1" parent="1">
          <mxGeometry x="75.5" y="2689" width="500" height="30" as="geometry" />
        </mxCell>
        <mxCell id="upFs9hlHG09d8Zoyp-7f-178" style="edgeStyle=orthogonalEdgeStyle;rounded=0;orthogonalLoop=1;jettySize=auto;html=1;entryX=0.8;entryY=0.989;entryDx=0;entryDy=0;entryPerimeter=0;fillColor=#d0cee2;strokeColor=#56517e;flowAnimation=0;" edge="1" parent="1" source="upFs9hlHG09d8Zoyp-7f-171" target="upFs9hlHG09d8Zoyp-7f-175">
          <mxGeometry relative="1" as="geometry" />
        </mxCell>
        <mxCell id="upFs9hlHG09d8Zoyp-7f-184" value="" style="rounded=0;whiteSpace=wrap;html=1;fillColor=#cce5ff;strokeColor=#36393d;" vertex="1" parent="1">
          <mxGeometry x="93" y="3049" width="30" height="30" as="geometry" />
        </mxCell>
        <mxCell id="upFs9hlHG09d8Zoyp-7f-185" value="" style="rounded=0;whiteSpace=wrap;html=1;fillColor=#cce5ff;strokeColor=#36393d;" vertex="1" parent="1">
          <mxGeometry x="123" y="3049" width="30" height="30" as="geometry" />
        </mxCell>
        <mxCell id="upFs9hlHG09d8Zoyp-7f-186" value="" style="rounded=0;whiteSpace=wrap;html=1;fillColor=#cce5ff;strokeColor=#36393d;" vertex="1" parent="1">
          <mxGeometry x="153" y="3049" width="30" height="30" as="geometry" />
        </mxCell>
        <mxCell id="upFs9hlHG09d8Zoyp-7f-187" value="" style="rounded=0;whiteSpace=wrap;html=1;fillColor=#cce5ff;strokeColor=#36393d;" vertex="1" parent="1">
          <mxGeometry x="183" y="3049" width="30" height="30" as="geometry" />
        </mxCell>
        <mxCell id="upFs9hlHG09d8Zoyp-7f-188" value="" style="rounded=0;whiteSpace=wrap;html=1;fillColor=#cce5ff;strokeColor=#36393d;" vertex="1" parent="1">
          <mxGeometry x="213" y="3049" width="30" height="30" as="geometry" />
        </mxCell>
        <mxCell id="upFs9hlHG09d8Zoyp-7f-189" value="" style="rounded=0;whiteSpace=wrap;html=1;fillColor=#cce5ff;strokeColor=#36393d;" vertex="1" parent="1">
          <mxGeometry x="93" y="3079" width="30" height="30" as="geometry" />
        </mxCell>
        <mxCell id="upFs9hlHG09d8Zoyp-7f-190" value="" style="rounded=0;whiteSpace=wrap;html=1;fillColor=#cce5ff;strokeColor=#36393d;" vertex="1" parent="1">
          <mxGeometry x="123" y="3079" width="30" height="30" as="geometry" />
        </mxCell>
        <mxCell id="upFs9hlHG09d8Zoyp-7f-191" value="" style="rounded=0;whiteSpace=wrap;html=1;fillColor=#cce5ff;strokeColor=#36393d;" vertex="1" parent="1">
          <mxGeometry x="153" y="3079" width="30" height="30" as="geometry" />
        </mxCell>
        <mxCell id="upFs9hlHG09d8Zoyp-7f-192" value="" style="rounded=0;whiteSpace=wrap;html=1;fillColor=#cce5ff;strokeColor=#36393d;" vertex="1" parent="1">
          <mxGeometry x="183" y="3079" width="30" height="30" as="geometry" />
        </mxCell>
        <mxCell id="upFs9hlHG09d8Zoyp-7f-193" value="" style="rounded=0;whiteSpace=wrap;html=1;fillColor=#cce5ff;strokeColor=#36393d;" vertex="1" parent="1">
          <mxGeometry x="213" y="3079" width="30" height="30" as="geometry" />
        </mxCell>
        <mxCell id="upFs9hlHG09d8Zoyp-7f-194" value="" style="rounded=0;whiteSpace=wrap;html=1;fillColor=#cce5ff;strokeColor=#36393d;" vertex="1" parent="1">
          <mxGeometry x="93" y="3109" width="30" height="30" as="geometry" />
        </mxCell>
        <mxCell id="upFs9hlHG09d8Zoyp-7f-195" value="" style="rounded=0;whiteSpace=wrap;html=1;fillColor=#cce5ff;strokeColor=#36393d;" vertex="1" parent="1">
          <mxGeometry x="123" y="3109" width="30" height="30" as="geometry" />
        </mxCell>
        <mxCell id="upFs9hlHG09d8Zoyp-7f-196" value="" style="rounded=0;whiteSpace=wrap;html=1;fillColor=#cce5ff;strokeColor=#36393d;" vertex="1" parent="1">
          <mxGeometry x="153" y="3109" width="30" height="30" as="geometry" />
        </mxCell>
        <mxCell id="upFs9hlHG09d8Zoyp-7f-197" value="" style="rounded=0;whiteSpace=wrap;html=1;fillColor=#cce5ff;strokeColor=#36393d;" vertex="1" parent="1">
          <mxGeometry x="183" y="3109" width="30" height="30" as="geometry" />
        </mxCell>
        <mxCell id="upFs9hlHG09d8Zoyp-7f-198" value="" style="rounded=0;whiteSpace=wrap;html=1;fillColor=#cce5ff;strokeColor=#36393d;" vertex="1" parent="1">
          <mxGeometry x="213" y="3109" width="30" height="30" as="geometry" />
        </mxCell>
        <mxCell id="upFs9hlHG09d8Zoyp-7f-199" value="" style="rounded=0;whiteSpace=wrap;html=1;fillColor=#cce5ff;strokeColor=#36393d;" vertex="1" parent="1">
          <mxGeometry x="93" y="3139" width="30" height="30" as="geometry" />
        </mxCell>
        <mxCell id="upFs9hlHG09d8Zoyp-7f-200" value="" style="rounded=0;whiteSpace=wrap;html=1;fillColor=#cce5ff;strokeColor=#36393d;" vertex="1" parent="1">
          <mxGeometry x="123" y="3139" width="30" height="30" as="geometry" />
        </mxCell>
        <mxCell id="upFs9hlHG09d8Zoyp-7f-201" value="" style="rounded=0;whiteSpace=wrap;html=1;fillColor=#cce5ff;strokeColor=#36393d;" vertex="1" parent="1">
          <mxGeometry x="153" y="3139" width="30" height="30" as="geometry" />
        </mxCell>
        <mxCell id="upFs9hlHG09d8Zoyp-7f-202" value="" style="rounded=0;whiteSpace=wrap;html=1;fillColor=#cce5ff;strokeColor=#36393d;" vertex="1" parent="1">
          <mxGeometry x="183" y="3139" width="30" height="30" as="geometry" />
        </mxCell>
        <mxCell id="upFs9hlHG09d8Zoyp-7f-203" value="" style="rounded=0;whiteSpace=wrap;html=1;fillColor=#cce5ff;strokeColor=#36393d;" vertex="1" parent="1">
          <mxGeometry x="213" y="3139" width="30" height="30" as="geometry" />
        </mxCell>
        <mxCell id="upFs9hlHG09d8Zoyp-7f-204" value="" style="rounded=0;whiteSpace=wrap;html=1;fillColor=#ffe6cc;strokeColor=#d79b00;" vertex="1" parent="1">
          <mxGeometry x="280" y="3049" width="30" height="30" as="geometry" />
        </mxCell>
        <mxCell id="upFs9hlHG09d8Zoyp-7f-205" value="" style="rounded=0;whiteSpace=wrap;html=1;fillColor=#bac8d3;strokeColor=#23445d;" vertex="1" parent="1">
          <mxGeometry x="310" y="3049" width="30" height="30" as="geometry" />
        </mxCell>
        <mxCell id="upFs9hlHG09d8Zoyp-7f-206" value="" style="rounded=0;whiteSpace=wrap;html=1;fillColor=#bac8d3;strokeColor=#23445d;" vertex="1" parent="1">
          <mxGeometry x="340" y="3049" width="30" height="30" as="geometry" />
        </mxCell>
        <mxCell id="upFs9hlHG09d8Zoyp-7f-207" value="" style="rounded=0;whiteSpace=wrap;html=1;fillColor=#bac8d3;strokeColor=#23445d;" vertex="1" parent="1">
          <mxGeometry x="370" y="3049" width="30" height="30" as="geometry" />
        </mxCell>
        <mxCell id="upFs9hlHG09d8Zoyp-7f-208" value="" style="rounded=0;whiteSpace=wrap;html=1;fillColor=#bac8d3;strokeColor=#23445d;" vertex="1" parent="1">
          <mxGeometry x="400" y="3049" width="30" height="30" as="geometry" />
        </mxCell>
        <mxCell id="upFs9hlHG09d8Zoyp-7f-209" value="" style="rounded=0;whiteSpace=wrap;html=1;fillColor=#ffe6cc;strokeColor=#d79b00;" vertex="1" parent="1">
          <mxGeometry x="280" y="3079" width="30" height="30" as="geometry" />
        </mxCell>
        <mxCell id="upFs9hlHG09d8Zoyp-7f-210" value="" style="rounded=0;whiteSpace=wrap;html=1;fillColor=#ffe6cc;strokeColor=#d79b00;" vertex="1" parent="1">
          <mxGeometry x="310" y="3079" width="30" height="30" as="geometry" />
        </mxCell>
        <mxCell id="upFs9hlHG09d8Zoyp-7f-211" value="" style="rounded=0;whiteSpace=wrap;html=1;fillColor=#bac8d3;strokeColor=#23445d;" vertex="1" parent="1">
          <mxGeometry x="340" y="3079" width="30" height="30" as="geometry" />
        </mxCell>
        <mxCell id="upFs9hlHG09d8Zoyp-7f-212" value="" style="rounded=0;whiteSpace=wrap;html=1;fillColor=#bac8d3;strokeColor=#23445d;" vertex="1" parent="1">
          <mxGeometry x="370" y="3079" width="30" height="30" as="geometry" />
        </mxCell>
        <mxCell id="upFs9hlHG09d8Zoyp-7f-213" value="" style="rounded=0;whiteSpace=wrap;html=1;fillColor=#bac8d3;strokeColor=#23445d;" vertex="1" parent="1">
          <mxGeometry x="400" y="3079" width="30" height="30" as="geometry" />
        </mxCell>
        <mxCell id="upFs9hlHG09d8Zoyp-7f-214" value="" style="rounded=0;whiteSpace=wrap;html=1;fillColor=#ffe6cc;strokeColor=#d79b00;" vertex="1" parent="1">
          <mxGeometry x="280" y="3109" width="30" height="30" as="geometry" />
        </mxCell>
        <mxCell id="upFs9hlHG09d8Zoyp-7f-215" value="" style="rounded=0;whiteSpace=wrap;html=1;fillColor=#ffe6cc;strokeColor=#d79b00;" vertex="1" parent="1">
          <mxGeometry x="310" y="3109" width="30" height="30" as="geometry" />
        </mxCell>
        <mxCell id="upFs9hlHG09d8Zoyp-7f-216" value="" style="rounded=0;whiteSpace=wrap;html=1;fillColor=#ffe6cc;strokeColor=#d79b00;" vertex="1" parent="1">
          <mxGeometry x="340" y="3109" width="30" height="30" as="geometry" />
        </mxCell>
        <mxCell id="upFs9hlHG09d8Zoyp-7f-217" value="" style="rounded=0;whiteSpace=wrap;html=1;fillColor=#bac8d3;strokeColor=#23445d;" vertex="1" parent="1">
          <mxGeometry x="370" y="3109" width="30" height="30" as="geometry" />
        </mxCell>
        <mxCell id="upFs9hlHG09d8Zoyp-7f-218" value="" style="rounded=0;whiteSpace=wrap;html=1;fillColor=#bac8d3;strokeColor=#23445d;" vertex="1" parent="1">
          <mxGeometry x="400" y="3109" width="30" height="30" as="geometry" />
        </mxCell>
        <mxCell id="upFs9hlHG09d8Zoyp-7f-219" value="" style="rounded=0;whiteSpace=wrap;html=1;fillColor=#ffe6cc;strokeColor=#d79b00;" vertex="1" parent="1">
          <mxGeometry x="280" y="3139" width="30" height="30" as="geometry" />
        </mxCell>
        <mxCell id="upFs9hlHG09d8Zoyp-7f-220" value="" style="rounded=0;whiteSpace=wrap;html=1;fillColor=#ffe6cc;strokeColor=#d79b00;" vertex="1" parent="1">
          <mxGeometry x="310" y="3139" width="30" height="30" as="geometry" />
        </mxCell>
        <mxCell id="upFs9hlHG09d8Zoyp-7f-221" value="" style="rounded=0;whiteSpace=wrap;html=1;fillColor=#ffe6cc;strokeColor=#d79b00;" vertex="1" parent="1">
          <mxGeometry x="340" y="3139" width="30" height="30" as="geometry" />
        </mxCell>
        <mxCell id="upFs9hlHG09d8Zoyp-7f-222" value="" style="rounded=0;whiteSpace=wrap;html=1;fillColor=#ffe6cc;strokeColor=#d79b00;" vertex="1" parent="1">
          <mxGeometry x="370" y="3139" width="30" height="30" as="geometry" />
        </mxCell>
        <mxCell id="upFs9hlHG09d8Zoyp-7f-223" value="" style="rounded=0;whiteSpace=wrap;html=1;fillColor=#bac8d3;strokeColor=#23445d;" vertex="1" parent="1">
          <mxGeometry x="400" y="3139" width="30" height="30" as="geometry" />
        </mxCell>
        <mxCell id="upFs9hlHG09d8Zoyp-7f-224" value="" style="rounded=0;whiteSpace=wrap;html=1;fillColor=#cce5ff;strokeColor=#36393d;" vertex="1" parent="1">
          <mxGeometry x="93" y="3169" width="30" height="30" as="geometry" />
        </mxCell>
        <mxCell id="upFs9hlHG09d8Zoyp-7f-225" value="" style="rounded=0;whiteSpace=wrap;html=1;fillColor=#cce5ff;strokeColor=#36393d;" vertex="1" parent="1">
          <mxGeometry x="123" y="3169" width="30" height="30" as="geometry" />
        </mxCell>
        <mxCell id="upFs9hlHG09d8Zoyp-7f-226" value="" style="rounded=0;whiteSpace=wrap;html=1;fillColor=#cce5ff;strokeColor=#36393d;" vertex="1" parent="1">
          <mxGeometry x="153" y="3169" width="30" height="30" as="geometry" />
        </mxCell>
        <mxCell id="upFs9hlHG09d8Zoyp-7f-227" value="" style="rounded=0;whiteSpace=wrap;html=1;fillColor=#cce5ff;strokeColor=#36393d;" vertex="1" parent="1">
          <mxGeometry x="183" y="3169" width="30" height="30" as="geometry" />
        </mxCell>
        <mxCell id="upFs9hlHG09d8Zoyp-7f-228" value="" style="rounded=0;whiteSpace=wrap;html=1;fillColor=#cce5ff;strokeColor=#36393d;" vertex="1" parent="1">
          <mxGeometry x="213" y="3169" width="30" height="30" as="geometry" />
        </mxCell>
        <mxCell id="upFs9hlHG09d8Zoyp-7f-229" value="" style="rounded=0;whiteSpace=wrap;html=1;fillColor=#ffe6cc;strokeColor=#d79b00;" vertex="1" parent="1">
          <mxGeometry x="280" y="3169" width="30" height="30" as="geometry" />
        </mxCell>
        <mxCell id="upFs9hlHG09d8Zoyp-7f-230" value="" style="rounded=0;whiteSpace=wrap;html=1;fillColor=#ffe6cc;strokeColor=#d79b00;" vertex="1" parent="1">
          <mxGeometry x="310" y="3169" width="30" height="30" as="geometry" />
        </mxCell>
        <mxCell id="upFs9hlHG09d8Zoyp-7f-231" value="" style="rounded=0;whiteSpace=wrap;html=1;fillColor=#ffe6cc;strokeColor=#d79b00;" vertex="1" parent="1">
          <mxGeometry x="340" y="3169" width="30" height="30" as="geometry" />
        </mxCell>
        <mxCell id="upFs9hlHG09d8Zoyp-7f-232" value="" style="rounded=0;whiteSpace=wrap;html=1;fillColor=#ffe6cc;strokeColor=#d79b00;" vertex="1" parent="1">
          <mxGeometry x="370" y="3169" width="30" height="30" as="geometry" />
        </mxCell>
        <mxCell id="upFs9hlHG09d8Zoyp-7f-233" value="" style="rounded=0;whiteSpace=wrap;html=1;fillColor=#ffe6cc;strokeColor=#d79b00;" vertex="1" parent="1">
          <mxGeometry x="400" y="3169" width="30" height="30" as="geometry" />
        </mxCell>
        <mxCell id="upFs9hlHG09d8Zoyp-7f-234" value="" style="rounded=0;whiteSpace=wrap;html=1;fillColor=#ffe6cc;strokeColor=#d79b00;" vertex="1" parent="1">
          <mxGeometry x="462.5" y="3049" width="30" height="30" as="geometry" />
        </mxCell>
        <mxCell id="upFs9hlHG09d8Zoyp-7f-235" value="" style="rounded=0;whiteSpace=wrap;html=1;fillColor=#bac8d3;strokeColor=#23445d;" vertex="1" parent="1">
          <mxGeometry x="462.5" y="3089" width="30" height="30" as="geometry" />
        </mxCell>
        <mxCell id="upFs9hlHG09d8Zoyp-7f-236" value="不遮掩" style="text;html=1;align=center;verticalAlign=middle;resizable=0;points=[];autosize=1;strokeColor=none;fillColor=none;" vertex="1" parent="1">
          <mxGeometry x="492.5" y="3049" width="54" height="26" as="geometry" />
        </mxCell>
        <mxCell id="upFs9hlHG09d8Zoyp-7f-237" value="遮掩" style="text;html=1;align=center;verticalAlign=middle;resizable=0;points=[];autosize=1;strokeColor=none;fillColor=none;" vertex="1" parent="1">
          <mxGeometry x="494" y="3089" width="42" height="26" as="geometry" />
        </mxCell>
        <mxCell id="upFs9hlHG09d8Zoyp-7f-238" value="&lt;font style=&quot;font-size: 23px;&quot;&gt;*&lt;/font&gt;" style="text;html=1;align=center;verticalAlign=middle;resizable=0;points=[];autosize=1;strokeColor=none;fillColor=none;" vertex="1" parent="1">
          <mxGeometry x="247" y="3103" width="27" height="40" as="geometry" />
        </mxCell>
        <mxCell id="upFs9hlHG09d8Zoyp-7f-239" value="" style="rounded=0;whiteSpace=wrap;html=1;fillColor=#cce5ff;strokeColor=#36393d;" vertex="1" parent="1">
          <mxGeometry x="562" y="3049" width="30" height="30" as="geometry" />
        </mxCell>
        <mxCell id="upFs9hlHG09d8Zoyp-7f-240" value="" style="rounded=0;whiteSpace=wrap;html=1;" vertex="1" parent="1">
          <mxGeometry x="592" y="3049" width="30" height="30" as="geometry" />
        </mxCell>
        <mxCell id="upFs9hlHG09d8Zoyp-7f-241" value="" style="rounded=0;whiteSpace=wrap;html=1;" vertex="1" parent="1">
          <mxGeometry x="622" y="3049" width="30" height="30" as="geometry" />
        </mxCell>
        <mxCell id="upFs9hlHG09d8Zoyp-7f-242" value="" style="rounded=0;whiteSpace=wrap;html=1;" vertex="1" parent="1">
          <mxGeometry x="652" y="3049" width="30" height="30" as="geometry" />
        </mxCell>
        <mxCell id="upFs9hlHG09d8Zoyp-7f-243" value="" style="rounded=0;whiteSpace=wrap;html=1;" vertex="1" parent="1">
          <mxGeometry x="682" y="3049" width="30" height="30" as="geometry" />
        </mxCell>
        <mxCell id="upFs9hlHG09d8Zoyp-7f-244" value="" style="rounded=0;whiteSpace=wrap;html=1;fillColor=#cce5ff;strokeColor=#36393d;" vertex="1" parent="1">
          <mxGeometry x="562" y="3079" width="30" height="30" as="geometry" />
        </mxCell>
        <mxCell id="upFs9hlHG09d8Zoyp-7f-245" value="" style="rounded=0;whiteSpace=wrap;html=1;fillColor=#cce5ff;strokeColor=#36393d;" vertex="1" parent="1">
          <mxGeometry x="592" y="3079" width="30" height="30" as="geometry" />
        </mxCell>
        <mxCell id="upFs9hlHG09d8Zoyp-7f-246" value="" style="rounded=0;whiteSpace=wrap;html=1;" vertex="1" parent="1">
          <mxGeometry x="622" y="3079" width="30" height="30" as="geometry" />
        </mxCell>
        <mxCell id="upFs9hlHG09d8Zoyp-7f-247" value="" style="rounded=0;whiteSpace=wrap;html=1;" vertex="1" parent="1">
          <mxGeometry x="652" y="3079" width="30" height="30" as="geometry" />
        </mxCell>
        <mxCell id="upFs9hlHG09d8Zoyp-7f-248" value="" style="rounded=0;whiteSpace=wrap;html=1;" vertex="1" parent="1">
          <mxGeometry x="682" y="3079" width="30" height="30" as="geometry" />
        </mxCell>
        <mxCell id="upFs9hlHG09d8Zoyp-7f-249" value="" style="rounded=0;whiteSpace=wrap;html=1;fillColor=#cce5ff;strokeColor=#36393d;" vertex="1" parent="1">
          <mxGeometry x="562" y="3109" width="30" height="30" as="geometry" />
        </mxCell>
        <mxCell id="upFs9hlHG09d8Zoyp-7f-250" value="" style="rounded=0;whiteSpace=wrap;html=1;fillColor=#cce5ff;strokeColor=#36393d;" vertex="1" parent="1">
          <mxGeometry x="592" y="3109" width="30" height="30" as="geometry" />
        </mxCell>
        <mxCell id="upFs9hlHG09d8Zoyp-7f-251" value="" style="rounded=0;whiteSpace=wrap;html=1;fillColor=#cce5ff;strokeColor=#36393d;" vertex="1" parent="1">
          <mxGeometry x="622" y="3109" width="30" height="30" as="geometry" />
        </mxCell>
        <mxCell id="upFs9hlHG09d8Zoyp-7f-252" value="" style="rounded=0;whiteSpace=wrap;html=1;" vertex="1" parent="1">
          <mxGeometry x="652" y="3109" width="30" height="30" as="geometry" />
        </mxCell>
        <mxCell id="upFs9hlHG09d8Zoyp-7f-253" value="" style="rounded=0;whiteSpace=wrap;html=1;" vertex="1" parent="1">
          <mxGeometry x="682" y="3109" width="30" height="30" as="geometry" />
        </mxCell>
        <mxCell id="upFs9hlHG09d8Zoyp-7f-254" value="" style="rounded=0;whiteSpace=wrap;html=1;fillColor=#cce5ff;strokeColor=#36393d;" vertex="1" parent="1">
          <mxGeometry x="562" y="3139" width="30" height="30" as="geometry" />
        </mxCell>
        <mxCell id="upFs9hlHG09d8Zoyp-7f-255" value="" style="rounded=0;whiteSpace=wrap;html=1;fillColor=#cce5ff;strokeColor=#36393d;" vertex="1" parent="1">
          <mxGeometry x="592" y="3139" width="30" height="30" as="geometry" />
        </mxCell>
        <mxCell id="upFs9hlHG09d8Zoyp-7f-256" value="" style="rounded=0;whiteSpace=wrap;html=1;fillColor=#cce5ff;strokeColor=#36393d;" vertex="1" parent="1">
          <mxGeometry x="622" y="3139" width="30" height="30" as="geometry" />
        </mxCell>
        <mxCell id="upFs9hlHG09d8Zoyp-7f-257" value="" style="rounded=0;whiteSpace=wrap;html=1;fillColor=#cce5ff;strokeColor=#36393d;" vertex="1" parent="1">
          <mxGeometry x="652" y="3139" width="30" height="30" as="geometry" />
        </mxCell>
        <mxCell id="upFs9hlHG09d8Zoyp-7f-258" value="" style="rounded=0;whiteSpace=wrap;html=1;" vertex="1" parent="1">
          <mxGeometry x="682" y="3139" width="30" height="30" as="geometry" />
        </mxCell>
        <mxCell id="upFs9hlHG09d8Zoyp-7f-259" value="" style="rounded=0;whiteSpace=wrap;html=1;fillColor=#cce5ff;strokeColor=#36393d;" vertex="1" parent="1">
          <mxGeometry x="562" y="3169" width="30" height="30" as="geometry" />
        </mxCell>
        <mxCell id="upFs9hlHG09d8Zoyp-7f-260" value="" style="rounded=0;whiteSpace=wrap;html=1;fillColor=#cce5ff;strokeColor=#36393d;" vertex="1" parent="1">
          <mxGeometry x="592" y="3169" width="30" height="30" as="geometry" />
        </mxCell>
        <mxCell id="upFs9hlHG09d8Zoyp-7f-261" value="" style="rounded=0;whiteSpace=wrap;html=1;fillColor=#cce5ff;strokeColor=#36393d;" vertex="1" parent="1">
          <mxGeometry x="622" y="3169" width="30" height="30" as="geometry" />
        </mxCell>
        <mxCell id="upFs9hlHG09d8Zoyp-7f-262" value="" style="rounded=0;whiteSpace=wrap;html=1;fillColor=#cce5ff;strokeColor=#36393d;" vertex="1" parent="1">
          <mxGeometry x="652" y="3169" width="30" height="30" as="geometry" />
        </mxCell>
        <mxCell id="upFs9hlHG09d8Zoyp-7f-263" value="" style="rounded=0;whiteSpace=wrap;html=1;fillColor=#cce5ff;strokeColor=#36393d;" vertex="1" parent="1">
          <mxGeometry x="682" y="3169" width="30" height="30" as="geometry" />
        </mxCell>
        <mxCell id="upFs9hlHG09d8Zoyp-7f-264" value="输入词向量矩阵" style="text;html=1;align=center;verticalAlign=middle;resizable=0;points=[];autosize=1;strokeColor=none;fillColor=none;" vertex="1" parent="1">
          <mxGeometry x="117" y="3215" width="102" height="26" as="geometry" />
        </mxCell>
        <mxCell id="upFs9hlHG09d8Zoyp-7f-265" value="Mask矩阵" style="text;html=1;align=center;verticalAlign=middle;resizable=0;points=[];autosize=1;strokeColor=none;fillColor=none;" vertex="1" parent="1">
          <mxGeometry x="320" y="3215" width="71" height="26" as="geometry" />
        </mxCell>
        <mxCell id="upFs9hlHG09d8Zoyp-7f-266" value="掩码后词向量矩阵" style="text;html=1;align=center;verticalAlign=middle;resizable=0;points=[];autosize=1;strokeColor=none;fillColor=none;" vertex="1" parent="1">
          <mxGeometry x="580" y="3215" width="114" height="26" as="geometry" />
        </mxCell>
        <mxCell id="upFs9hlHG09d8Zoyp-7f-267" value="" style="shape=cube;whiteSpace=wrap;html=1;boundedLbl=1;backgroundOutline=1;darkOpacity=0.05;darkOpacity2=0.1;" vertex="1" parent="1">
          <mxGeometry x="333.5" y="3797" width="80" height="80" as="geometry" />
        </mxCell>
        <mxCell id="upFs9hlHG09d8Zoyp-7f-270" value="" style="shape=cube;whiteSpace=wrap;html=1;boundedLbl=1;backgroundOutline=1;darkOpacity=0.05;darkOpacity2=0.1;" vertex="1" parent="1">
          <mxGeometry x="273.5" y="3797" width="80" height="80" as="geometry" />
        </mxCell>
        <mxCell id="upFs9hlHG09d8Zoyp-7f-271" value="" style="shape=cube;whiteSpace=wrap;html=1;boundedLbl=1;backgroundOutline=1;darkOpacity=0.05;darkOpacity2=0.1;" vertex="1" parent="1">
          <mxGeometry x="213.5" y="3797" width="80" height="80" as="geometry" />
        </mxCell>
        <mxCell id="upFs9hlHG09d8Zoyp-7f-272" value="" style="shape=cube;whiteSpace=wrap;html=1;boundedLbl=1;backgroundOutline=1;darkOpacity=0.05;darkOpacity2=0.1;" vertex="1" parent="1">
          <mxGeometry x="153.5" y="3797" width="80" height="80" as="geometry" />
        </mxCell>
        <mxCell id="upFs9hlHG09d8Zoyp-7f-273" value="" style="shape=cube;whiteSpace=wrap;html=1;boundedLbl=1;backgroundOutline=1;darkOpacity=0.05;darkOpacity2=0.1;fillColor=#b0e3e6;strokeColor=#0e8088;" vertex="1" parent="1">
          <mxGeometry x="94" y="3797" width="80" height="80" as="geometry" />
        </mxCell>
        <mxCell id="upFs9hlHG09d8Zoyp-7f-275" value="" style="shape=cube;whiteSpace=wrap;html=1;boundedLbl=1;backgroundOutline=1;darkOpacity=0.05;darkOpacity2=0.1;" vertex="1" parent="1">
          <mxGeometry x="353" y="3817" width="80" height="80" as="geometry" />
        </mxCell>
        <mxCell id="upFs9hlHG09d8Zoyp-7f-276" value="" style="shape=cube;whiteSpace=wrap;html=1;boundedLbl=1;backgroundOutline=1;darkOpacity=0.05;darkOpacity2=0.1;" vertex="1" parent="1">
          <mxGeometry x="293" y="3817" width="80" height="80" as="geometry" />
        </mxCell>
        <mxCell id="upFs9hlHG09d8Zoyp-7f-277" value="" style="shape=cube;whiteSpace=wrap;html=1;boundedLbl=1;backgroundOutline=1;darkOpacity=0.05;darkOpacity2=0.1;" vertex="1" parent="1">
          <mxGeometry x="233" y="3817" width="80" height="80" as="geometry" />
        </mxCell>
        <mxCell id="upFs9hlHG09d8Zoyp-7f-278" value="" style="shape=cube;whiteSpace=wrap;html=1;boundedLbl=1;backgroundOutline=1;darkOpacity=0.05;darkOpacity2=0.1;" vertex="1" parent="1">
          <mxGeometry x="173" y="3817" width="80" height="80" as="geometry" />
        </mxCell>
        <mxCell id="upFs9hlHG09d8Zoyp-7f-279" value="" style="shape=cube;whiteSpace=wrap;html=1;boundedLbl=1;backgroundOutline=1;darkOpacity=0.05;darkOpacity2=0.1;fillColor=#b0e3e6;strokeColor=#0e8088;" vertex="1" parent="1">
          <mxGeometry x="113.5" y="3817" width="80" height="80" as="geometry" />
        </mxCell>
        <mxCell id="upFs9hlHG09d8Zoyp-7f-331" value="" style="shape=cube;whiteSpace=wrap;html=1;boundedLbl=1;backgroundOutline=1;darkOpacity=0.05;darkOpacity2=0.1;" vertex="1" parent="1">
          <mxGeometry x="373" y="3837" width="80" height="80" as="geometry" />
        </mxCell>
        <mxCell id="upFs9hlHG09d8Zoyp-7f-332" value="" style="shape=cube;whiteSpace=wrap;html=1;boundedLbl=1;backgroundOutline=1;darkOpacity=0.05;darkOpacity2=0.1;" vertex="1" parent="1">
          <mxGeometry x="313" y="3837" width="80" height="80" as="geometry" />
        </mxCell>
        <mxCell id="upFs9hlHG09d8Zoyp-7f-333" value="" style="shape=cube;whiteSpace=wrap;html=1;boundedLbl=1;backgroundOutline=1;darkOpacity=0.05;darkOpacity2=0.1;" vertex="1" parent="1">
          <mxGeometry x="253" y="3837" width="80" height="80" as="geometry" />
        </mxCell>
        <mxCell id="upFs9hlHG09d8Zoyp-7f-334" value="" style="shape=cube;whiteSpace=wrap;html=1;boundedLbl=1;backgroundOutline=1;darkOpacity=0.05;darkOpacity2=0.1;" vertex="1" parent="1">
          <mxGeometry x="193" y="3837" width="80" height="80" as="geometry" />
        </mxCell>
        <mxCell id="upFs9hlHG09d8Zoyp-7f-335" value="" style="shape=cube;whiteSpace=wrap;html=1;boundedLbl=1;backgroundOutline=1;darkOpacity=0.05;darkOpacity2=0.1;fillColor=#b0e3e6;strokeColor=#0e8088;" vertex="1" parent="1">
          <mxGeometry x="133.5" y="3837" width="80" height="80" as="geometry" />
        </mxCell>
        <mxCell id="upFs9hlHG09d8Zoyp-7f-336" value="" style="shape=cube;whiteSpace=wrap;html=1;boundedLbl=1;backgroundOutline=1;darkOpacity=0.05;darkOpacity2=0.1;" vertex="1" parent="1">
          <mxGeometry x="392.5" y="3857" width="80" height="80" as="geometry" />
        </mxCell>
        <mxCell id="upFs9hlHG09d8Zoyp-7f-337" value="" style="shape=cube;whiteSpace=wrap;html=1;boundedLbl=1;backgroundOutline=1;darkOpacity=0.05;darkOpacity2=0.1;" vertex="1" parent="1">
          <mxGeometry x="332.5" y="3857" width="80" height="80" as="geometry" />
        </mxCell>
        <mxCell id="upFs9hlHG09d8Zoyp-7f-338" value="" style="shape=cube;whiteSpace=wrap;html=1;boundedLbl=1;backgroundOutline=1;darkOpacity=0.05;darkOpacity2=0.1;" vertex="1" parent="1">
          <mxGeometry x="272.5" y="3857" width="80" height="80" as="geometry" />
        </mxCell>
        <mxCell id="upFs9hlHG09d8Zoyp-7f-339" value="" style="shape=cube;whiteSpace=wrap;html=1;boundedLbl=1;backgroundOutline=1;darkOpacity=0.05;darkOpacity2=0.1;" vertex="1" parent="1">
          <mxGeometry x="212.5" y="3857" width="80" height="80" as="geometry" />
        </mxCell>
        <mxCell id="upFs9hlHG09d8Zoyp-7f-340" value="" style="shape=cube;whiteSpace=wrap;html=1;boundedLbl=1;backgroundOutline=1;darkOpacity=0.05;darkOpacity2=0.1;fillColor=#b0e3e6;strokeColor=#0e8088;" vertex="1" parent="1">
          <mxGeometry x="153" y="3857" width="80" height="80" as="geometry" />
        </mxCell>
        <mxCell id="upFs9hlHG09d8Zoyp-7f-341" value="" style="shape=cube;whiteSpace=wrap;html=1;boundedLbl=1;backgroundOutline=1;darkOpacity=0.05;darkOpacity2=0.1;" vertex="1" parent="1">
          <mxGeometry x="412.5" y="3877" width="80" height="80" as="geometry" />
        </mxCell>
        <mxCell id="upFs9hlHG09d8Zoyp-7f-342" value="" style="shape=cube;whiteSpace=wrap;html=1;boundedLbl=1;backgroundOutline=1;darkOpacity=0.05;darkOpacity2=0.1;" vertex="1" parent="1">
          <mxGeometry x="352.5" y="3877" width="80" height="80" as="geometry" />
        </mxCell>
        <mxCell id="upFs9hlHG09d8Zoyp-7f-343" value="" style="shape=cube;whiteSpace=wrap;html=1;boundedLbl=1;backgroundOutline=1;darkOpacity=0.05;darkOpacity2=0.1;" vertex="1" parent="1">
          <mxGeometry x="292.5" y="3877" width="80" height="80" as="geometry" />
        </mxCell>
        <mxCell id="upFs9hlHG09d8Zoyp-7f-344" value="" style="shape=cube;whiteSpace=wrap;html=1;boundedLbl=1;backgroundOutline=1;darkOpacity=0.05;darkOpacity2=0.1;" vertex="1" parent="1">
          <mxGeometry x="232.5" y="3877" width="80" height="80" as="geometry" />
        </mxCell>
        <mxCell id="upFs9hlHG09d8Zoyp-7f-345" value="" style="shape=cube;whiteSpace=wrap;html=1;boundedLbl=1;backgroundOutline=1;darkOpacity=0.05;darkOpacity2=0.1;fillColor=#b0e3e6;strokeColor=#0e8088;" vertex="1" parent="1">
          <mxGeometry x="173" y="3877" width="80" height="80" as="geometry" />
        </mxCell>
        <mxCell id="upFs9hlHG09d8Zoyp-7f-346" value="" style="shape=cube;whiteSpace=wrap;html=1;boundedLbl=1;backgroundOutline=1;darkOpacity=0.05;darkOpacity2=0.1;" vertex="1" parent="1">
          <mxGeometry x="333.5" y="3737" width="80" height="80" as="geometry" />
        </mxCell>
        <mxCell id="upFs9hlHG09d8Zoyp-7f-347" value="" style="shape=cube;whiteSpace=wrap;html=1;boundedLbl=1;backgroundOutline=1;darkOpacity=0.05;darkOpacity2=0.1;" vertex="1" parent="1">
          <mxGeometry x="273.5" y="3737" width="80" height="80" as="geometry" />
        </mxCell>
        <mxCell id="upFs9hlHG09d8Zoyp-7f-348" value="" style="shape=cube;whiteSpace=wrap;html=1;boundedLbl=1;backgroundOutline=1;darkOpacity=0.05;darkOpacity2=0.1;" vertex="1" parent="1">
          <mxGeometry x="213.5" y="3737" width="80" height="80" as="geometry" />
        </mxCell>
        <mxCell id="upFs9hlHG09d8Zoyp-7f-349" value="" style="shape=cube;whiteSpace=wrap;html=1;boundedLbl=1;backgroundOutline=1;darkOpacity=0.05;darkOpacity2=0.1;" vertex="1" parent="1">
          <mxGeometry x="153.5" y="3737" width="80" height="80" as="geometry" />
        </mxCell>
        <mxCell id="upFs9hlHG09d8Zoyp-7f-350" value="" style="shape=cube;whiteSpace=wrap;html=1;boundedLbl=1;backgroundOutline=1;darkOpacity=0.05;darkOpacity2=0.1;fillColor=#b0e3e6;strokeColor=#0e8088;" vertex="1" parent="1">
          <mxGeometry x="94" y="3737" width="80" height="80" as="geometry" />
        </mxCell>
        <mxCell id="upFs9hlHG09d8Zoyp-7f-351" value="" style="shape=cube;whiteSpace=wrap;html=1;boundedLbl=1;backgroundOutline=1;darkOpacity=0.05;darkOpacity2=0.1;" vertex="1" parent="1">
          <mxGeometry x="353" y="3757" width="80" height="80" as="geometry" />
        </mxCell>
        <mxCell id="upFs9hlHG09d8Zoyp-7f-352" value="" style="shape=cube;whiteSpace=wrap;html=1;boundedLbl=1;backgroundOutline=1;darkOpacity=0.05;darkOpacity2=0.1;" vertex="1" parent="1">
          <mxGeometry x="293" y="3757" width="80" height="80" as="geometry" />
        </mxCell>
        <mxCell id="upFs9hlHG09d8Zoyp-7f-353" value="" style="shape=cube;whiteSpace=wrap;html=1;boundedLbl=1;backgroundOutline=1;darkOpacity=0.05;darkOpacity2=0.1;" vertex="1" parent="1">
          <mxGeometry x="233" y="3757" width="80" height="80" as="geometry" />
        </mxCell>
        <mxCell id="upFs9hlHG09d8Zoyp-7f-354" value="" style="shape=cube;whiteSpace=wrap;html=1;boundedLbl=1;backgroundOutline=1;darkOpacity=0.05;darkOpacity2=0.1;" vertex="1" parent="1">
          <mxGeometry x="173" y="3757" width="80" height="80" as="geometry" />
        </mxCell>
        <mxCell id="upFs9hlHG09d8Zoyp-7f-355" value="" style="shape=cube;whiteSpace=wrap;html=1;boundedLbl=1;backgroundOutline=1;darkOpacity=0.05;darkOpacity2=0.1;fillColor=#b0e3e6;strokeColor=#0e8088;" vertex="1" parent="1">
          <mxGeometry x="113.5" y="3757" width="80" height="80" as="geometry" />
        </mxCell>
        <mxCell id="upFs9hlHG09d8Zoyp-7f-356" value="" style="shape=cube;whiteSpace=wrap;html=1;boundedLbl=1;backgroundOutline=1;darkOpacity=0.05;darkOpacity2=0.1;" vertex="1" parent="1">
          <mxGeometry x="373" y="3777" width="80" height="80" as="geometry" />
        </mxCell>
        <mxCell id="upFs9hlHG09d8Zoyp-7f-357" value="" style="shape=cube;whiteSpace=wrap;html=1;boundedLbl=1;backgroundOutline=1;darkOpacity=0.05;darkOpacity2=0.1;" vertex="1" parent="1">
          <mxGeometry x="313" y="3777" width="80" height="80" as="geometry" />
        </mxCell>
        <mxCell id="upFs9hlHG09d8Zoyp-7f-358" value="" style="shape=cube;whiteSpace=wrap;html=1;boundedLbl=1;backgroundOutline=1;darkOpacity=0.05;darkOpacity2=0.1;" vertex="1" parent="1">
          <mxGeometry x="253" y="3777" width="80" height="80" as="geometry" />
        </mxCell>
        <mxCell id="upFs9hlHG09d8Zoyp-7f-359" value="" style="shape=cube;whiteSpace=wrap;html=1;boundedLbl=1;backgroundOutline=1;darkOpacity=0.05;darkOpacity2=0.1;" vertex="1" parent="1">
          <mxGeometry x="193" y="3777" width="80" height="80" as="geometry" />
        </mxCell>
        <mxCell id="upFs9hlHG09d8Zoyp-7f-360" value="" style="shape=cube;whiteSpace=wrap;html=1;boundedLbl=1;backgroundOutline=1;darkOpacity=0.05;darkOpacity2=0.1;fillColor=#b0e3e6;strokeColor=#0e8088;" vertex="1" parent="1">
          <mxGeometry x="133.5" y="3777" width="80" height="80" as="geometry" />
        </mxCell>
        <mxCell id="upFs9hlHG09d8Zoyp-7f-361" value="" style="shape=cube;whiteSpace=wrap;html=1;boundedLbl=1;backgroundOutline=1;darkOpacity=0.05;darkOpacity2=0.1;" vertex="1" parent="1">
          <mxGeometry x="392.5" y="3797" width="80" height="80" as="geometry" />
        </mxCell>
        <mxCell id="upFs9hlHG09d8Zoyp-7f-362" value="" style="shape=cube;whiteSpace=wrap;html=1;boundedLbl=1;backgroundOutline=1;darkOpacity=0.05;darkOpacity2=0.1;" vertex="1" parent="1">
          <mxGeometry x="332.5" y="3797" width="80" height="80" as="geometry" />
        </mxCell>
        <mxCell id="upFs9hlHG09d8Zoyp-7f-363" value="" style="shape=cube;whiteSpace=wrap;html=1;boundedLbl=1;backgroundOutline=1;darkOpacity=0.05;darkOpacity2=0.1;" vertex="1" parent="1">
          <mxGeometry x="272.5" y="3797" width="80" height="80" as="geometry" />
        </mxCell>
        <mxCell id="upFs9hlHG09d8Zoyp-7f-364" value="" style="shape=cube;whiteSpace=wrap;html=1;boundedLbl=1;backgroundOutline=1;darkOpacity=0.05;darkOpacity2=0.1;" vertex="1" parent="1">
          <mxGeometry x="212.5" y="3797" width="80" height="80" as="geometry" />
        </mxCell>
        <mxCell id="upFs9hlHG09d8Zoyp-7f-365" value="" style="shape=cube;whiteSpace=wrap;html=1;boundedLbl=1;backgroundOutline=1;darkOpacity=0.05;darkOpacity2=0.1;fillColor=#b0e3e6;strokeColor=#0e8088;" vertex="1" parent="1">
          <mxGeometry x="153" y="3797" width="80" height="80" as="geometry" />
        </mxCell>
        <mxCell id="upFs9hlHG09d8Zoyp-7f-366" value="" style="shape=cube;whiteSpace=wrap;html=1;boundedLbl=1;backgroundOutline=1;darkOpacity=0.05;darkOpacity2=0.1;" vertex="1" parent="1">
          <mxGeometry x="412.5" y="3817" width="80" height="80" as="geometry" />
        </mxCell>
        <mxCell id="upFs9hlHG09d8Zoyp-7f-367" value="" style="shape=cube;whiteSpace=wrap;html=1;boundedLbl=1;backgroundOutline=1;darkOpacity=0.05;darkOpacity2=0.1;" vertex="1" parent="1">
          <mxGeometry x="352.5" y="3817" width="80" height="80" as="geometry" />
        </mxCell>
        <mxCell id="upFs9hlHG09d8Zoyp-7f-368" value="" style="shape=cube;whiteSpace=wrap;html=1;boundedLbl=1;backgroundOutline=1;darkOpacity=0.05;darkOpacity2=0.1;" vertex="1" parent="1">
          <mxGeometry x="292.5" y="3817" width="80" height="80" as="geometry" />
        </mxCell>
        <mxCell id="upFs9hlHG09d8Zoyp-7f-369" value="" style="shape=cube;whiteSpace=wrap;html=1;boundedLbl=1;backgroundOutline=1;darkOpacity=0.05;darkOpacity2=0.1;" vertex="1" parent="1">
          <mxGeometry x="232.5" y="3817" width="80" height="80" as="geometry" />
        </mxCell>
        <mxCell id="upFs9hlHG09d8Zoyp-7f-370" value="" style="shape=cube;whiteSpace=wrap;html=1;boundedLbl=1;backgroundOutline=1;darkOpacity=0.05;darkOpacity2=0.1;fillColor=#b0e3e6;strokeColor=#0e8088;" vertex="1" parent="1">
          <mxGeometry x="173" y="3817" width="80" height="80" as="geometry" />
        </mxCell>
        <mxCell id="upFs9hlHG09d8Zoyp-7f-371" value="" style="shape=cube;whiteSpace=wrap;html=1;boundedLbl=1;backgroundOutline=1;darkOpacity=0.05;darkOpacity2=0.1;" vertex="1" parent="1">
          <mxGeometry x="333.5" y="3677" width="80" height="80" as="geometry" />
        </mxCell>
        <mxCell id="upFs9hlHG09d8Zoyp-7f-372" value="" style="shape=cube;whiteSpace=wrap;html=1;boundedLbl=1;backgroundOutline=1;darkOpacity=0.05;darkOpacity2=0.1;" vertex="1" parent="1">
          <mxGeometry x="273.5" y="3677" width="80" height="80" as="geometry" />
        </mxCell>
        <mxCell id="upFs9hlHG09d8Zoyp-7f-373" value="" style="shape=cube;whiteSpace=wrap;html=1;boundedLbl=1;backgroundOutline=1;darkOpacity=0.05;darkOpacity2=0.1;" vertex="1" parent="1">
          <mxGeometry x="213.5" y="3677" width="80" height="80" as="geometry" />
        </mxCell>
        <mxCell id="upFs9hlHG09d8Zoyp-7f-374" value="" style="shape=cube;whiteSpace=wrap;html=1;boundedLbl=1;backgroundOutline=1;darkOpacity=0.05;darkOpacity2=0.1;" vertex="1" parent="1">
          <mxGeometry x="153.5" y="3677" width="80" height="80" as="geometry" />
        </mxCell>
        <mxCell id="upFs9hlHG09d8Zoyp-7f-375" value="" style="shape=cube;whiteSpace=wrap;html=1;boundedLbl=1;backgroundOutline=1;darkOpacity=0.05;darkOpacity2=0.1;fillColor=#b0e3e6;strokeColor=#0e8088;" vertex="1" parent="1">
          <mxGeometry x="94" y="3677" width="80" height="80" as="geometry" />
        </mxCell>
        <mxCell id="upFs9hlHG09d8Zoyp-7f-376" value="" style="shape=cube;whiteSpace=wrap;html=1;boundedLbl=1;backgroundOutline=1;darkOpacity=0.05;darkOpacity2=0.1;" vertex="1" parent="1">
          <mxGeometry x="353" y="3697" width="80" height="80" as="geometry" />
        </mxCell>
        <mxCell id="upFs9hlHG09d8Zoyp-7f-377" value="" style="shape=cube;whiteSpace=wrap;html=1;boundedLbl=1;backgroundOutline=1;darkOpacity=0.05;darkOpacity2=0.1;" vertex="1" parent="1">
          <mxGeometry x="293" y="3697" width="80" height="80" as="geometry" />
        </mxCell>
        <mxCell id="upFs9hlHG09d8Zoyp-7f-378" value="" style="shape=cube;whiteSpace=wrap;html=1;boundedLbl=1;backgroundOutline=1;darkOpacity=0.05;darkOpacity2=0.1;" vertex="1" parent="1">
          <mxGeometry x="233" y="3697" width="80" height="80" as="geometry" />
        </mxCell>
        <mxCell id="upFs9hlHG09d8Zoyp-7f-379" value="" style="shape=cube;whiteSpace=wrap;html=1;boundedLbl=1;backgroundOutline=1;darkOpacity=0.05;darkOpacity2=0.1;" vertex="1" parent="1">
          <mxGeometry x="173" y="3697" width="80" height="80" as="geometry" />
        </mxCell>
        <mxCell id="upFs9hlHG09d8Zoyp-7f-380" value="" style="shape=cube;whiteSpace=wrap;html=1;boundedLbl=1;backgroundOutline=1;darkOpacity=0.05;darkOpacity2=0.1;fillColor=#b0e3e6;strokeColor=#0e8088;" vertex="1" parent="1">
          <mxGeometry x="113.5" y="3697" width="80" height="80" as="geometry" />
        </mxCell>
        <mxCell id="upFs9hlHG09d8Zoyp-7f-381" value="" style="shape=cube;whiteSpace=wrap;html=1;boundedLbl=1;backgroundOutline=1;darkOpacity=0.05;darkOpacity2=0.1;" vertex="1" parent="1">
          <mxGeometry x="373" y="3717" width="80" height="80" as="geometry" />
        </mxCell>
        <mxCell id="upFs9hlHG09d8Zoyp-7f-382" value="" style="shape=cube;whiteSpace=wrap;html=1;boundedLbl=1;backgroundOutline=1;darkOpacity=0.05;darkOpacity2=0.1;" vertex="1" parent="1">
          <mxGeometry x="313" y="3717" width="80" height="80" as="geometry" />
        </mxCell>
        <mxCell id="upFs9hlHG09d8Zoyp-7f-383" value="" style="shape=cube;whiteSpace=wrap;html=1;boundedLbl=1;backgroundOutline=1;darkOpacity=0.05;darkOpacity2=0.1;" vertex="1" parent="1">
          <mxGeometry x="253" y="3717" width="80" height="80" as="geometry" />
        </mxCell>
        <mxCell id="upFs9hlHG09d8Zoyp-7f-384" value="" style="shape=cube;whiteSpace=wrap;html=1;boundedLbl=1;backgroundOutline=1;darkOpacity=0.05;darkOpacity2=0.1;" vertex="1" parent="1">
          <mxGeometry x="193" y="3717" width="80" height="80" as="geometry" />
        </mxCell>
        <mxCell id="upFs9hlHG09d8Zoyp-7f-385" value="" style="shape=cube;whiteSpace=wrap;html=1;boundedLbl=1;backgroundOutline=1;darkOpacity=0.05;darkOpacity2=0.1;fillColor=#b0e3e6;strokeColor=#0e8088;" vertex="1" parent="1">
          <mxGeometry x="133.5" y="3717" width="80" height="80" as="geometry" />
        </mxCell>
        <mxCell id="upFs9hlHG09d8Zoyp-7f-386" value="" style="shape=cube;whiteSpace=wrap;html=1;boundedLbl=1;backgroundOutline=1;darkOpacity=0.05;darkOpacity2=0.1;" vertex="1" parent="1">
          <mxGeometry x="392.5" y="3737" width="80" height="80" as="geometry" />
        </mxCell>
        <mxCell id="upFs9hlHG09d8Zoyp-7f-387" value="" style="shape=cube;whiteSpace=wrap;html=1;boundedLbl=1;backgroundOutline=1;darkOpacity=0.05;darkOpacity2=0.1;" vertex="1" parent="1">
          <mxGeometry x="332.5" y="3737" width="80" height="80" as="geometry" />
        </mxCell>
        <mxCell id="upFs9hlHG09d8Zoyp-7f-388" value="" style="shape=cube;whiteSpace=wrap;html=1;boundedLbl=1;backgroundOutline=1;darkOpacity=0.05;darkOpacity2=0.1;" vertex="1" parent="1">
          <mxGeometry x="272.5" y="3737" width="80" height="80" as="geometry" />
        </mxCell>
        <mxCell id="upFs9hlHG09d8Zoyp-7f-389" value="" style="shape=cube;whiteSpace=wrap;html=1;boundedLbl=1;backgroundOutline=1;darkOpacity=0.05;darkOpacity2=0.1;" vertex="1" parent="1">
          <mxGeometry x="212.5" y="3737" width="80" height="80" as="geometry" />
        </mxCell>
        <mxCell id="upFs9hlHG09d8Zoyp-7f-390" value="" style="shape=cube;whiteSpace=wrap;html=1;boundedLbl=1;backgroundOutline=1;darkOpacity=0.05;darkOpacity2=0.1;fillColor=#b0e3e6;strokeColor=#0e8088;" vertex="1" parent="1">
          <mxGeometry x="153" y="3737" width="80" height="80" as="geometry" />
        </mxCell>
        <mxCell id="upFs9hlHG09d8Zoyp-7f-391" value="" style="shape=cube;whiteSpace=wrap;html=1;boundedLbl=1;backgroundOutline=1;darkOpacity=0.05;darkOpacity2=0.1;" vertex="1" parent="1">
          <mxGeometry x="412.5" y="3757" width="80" height="80" as="geometry" />
        </mxCell>
        <mxCell id="upFs9hlHG09d8Zoyp-7f-392" value="" style="shape=cube;whiteSpace=wrap;html=1;boundedLbl=1;backgroundOutline=1;darkOpacity=0.05;darkOpacity2=0.1;" vertex="1" parent="1">
          <mxGeometry x="352.5" y="3757" width="80" height="80" as="geometry" />
        </mxCell>
        <mxCell id="upFs9hlHG09d8Zoyp-7f-393" value="" style="shape=cube;whiteSpace=wrap;html=1;boundedLbl=1;backgroundOutline=1;darkOpacity=0.05;darkOpacity2=0.1;" vertex="1" parent="1">
          <mxGeometry x="292.5" y="3757" width="80" height="80" as="geometry" />
        </mxCell>
        <mxCell id="upFs9hlHG09d8Zoyp-7f-394" value="" style="shape=cube;whiteSpace=wrap;html=1;boundedLbl=1;backgroundOutline=1;darkOpacity=0.05;darkOpacity2=0.1;" vertex="1" parent="1">
          <mxGeometry x="232.5" y="3757" width="80" height="80" as="geometry" />
        </mxCell>
        <mxCell id="upFs9hlHG09d8Zoyp-7f-395" value="" style="shape=cube;whiteSpace=wrap;html=1;boundedLbl=1;backgroundOutline=1;darkOpacity=0.05;darkOpacity2=0.1;fillColor=#b0e3e6;strokeColor=#0e8088;" vertex="1" parent="1">
          <mxGeometry x="173" y="3757" width="80" height="80" as="geometry" />
        </mxCell>
        <mxCell id="upFs9hlHG09d8Zoyp-7f-396" value="" style="shape=cube;whiteSpace=wrap;html=1;boundedLbl=1;backgroundOutline=1;darkOpacity=0.05;darkOpacity2=0.1;" vertex="1" parent="1">
          <mxGeometry x="333.5" y="3617" width="80" height="80" as="geometry" />
        </mxCell>
        <mxCell id="upFs9hlHG09d8Zoyp-7f-397" value="" style="shape=cube;whiteSpace=wrap;html=1;boundedLbl=1;backgroundOutline=1;darkOpacity=0.05;darkOpacity2=0.1;" vertex="1" parent="1">
          <mxGeometry x="273.5" y="3617" width="80" height="80" as="geometry" />
        </mxCell>
        <mxCell id="upFs9hlHG09d8Zoyp-7f-398" value="" style="shape=cube;whiteSpace=wrap;html=1;boundedLbl=1;backgroundOutline=1;darkOpacity=0.05;darkOpacity2=0.1;" vertex="1" parent="1">
          <mxGeometry x="213.5" y="3617" width="80" height="80" as="geometry" />
        </mxCell>
        <mxCell id="upFs9hlHG09d8Zoyp-7f-399" value="" style="shape=cube;whiteSpace=wrap;html=1;boundedLbl=1;backgroundOutline=1;darkOpacity=0.05;darkOpacity2=0.1;" vertex="1" parent="1">
          <mxGeometry x="153.5" y="3617" width="80" height="80" as="geometry" />
        </mxCell>
        <mxCell id="upFs9hlHG09d8Zoyp-7f-400" value="" style="shape=cube;whiteSpace=wrap;html=1;boundedLbl=1;backgroundOutline=1;darkOpacity=0.05;darkOpacity2=0.1;fillColor=#b0e3e6;strokeColor=#0e8088;" vertex="1" parent="1">
          <mxGeometry x="94" y="3617" width="80" height="80" as="geometry" />
        </mxCell>
        <mxCell id="upFs9hlHG09d8Zoyp-7f-401" value="" style="shape=cube;whiteSpace=wrap;html=1;boundedLbl=1;backgroundOutline=1;darkOpacity=0.05;darkOpacity2=0.1;" vertex="1" parent="1">
          <mxGeometry x="353" y="3637" width="80" height="80" as="geometry" />
        </mxCell>
        <mxCell id="upFs9hlHG09d8Zoyp-7f-402" value="" style="shape=cube;whiteSpace=wrap;html=1;boundedLbl=1;backgroundOutline=1;darkOpacity=0.05;darkOpacity2=0.1;" vertex="1" parent="1">
          <mxGeometry x="293" y="3637" width="80" height="80" as="geometry" />
        </mxCell>
        <mxCell id="upFs9hlHG09d8Zoyp-7f-403" value="" style="shape=cube;whiteSpace=wrap;html=1;boundedLbl=1;backgroundOutline=1;darkOpacity=0.05;darkOpacity2=0.1;" vertex="1" parent="1">
          <mxGeometry x="233" y="3637" width="80" height="80" as="geometry" />
        </mxCell>
        <mxCell id="upFs9hlHG09d8Zoyp-7f-404" value="" style="shape=cube;whiteSpace=wrap;html=1;boundedLbl=1;backgroundOutline=1;darkOpacity=0.05;darkOpacity2=0.1;" vertex="1" parent="1">
          <mxGeometry x="173" y="3637" width="80" height="80" as="geometry" />
        </mxCell>
        <mxCell id="upFs9hlHG09d8Zoyp-7f-405" value="" style="shape=cube;whiteSpace=wrap;html=1;boundedLbl=1;backgroundOutline=1;darkOpacity=0.05;darkOpacity2=0.1;fillColor=#b0e3e6;strokeColor=#0e8088;" vertex="1" parent="1">
          <mxGeometry x="113.5" y="3637" width="80" height="80" as="geometry" />
        </mxCell>
        <mxCell id="upFs9hlHG09d8Zoyp-7f-406" value="" style="shape=cube;whiteSpace=wrap;html=1;boundedLbl=1;backgroundOutline=1;darkOpacity=0.05;darkOpacity2=0.1;" vertex="1" parent="1">
          <mxGeometry x="373" y="3657" width="80" height="80" as="geometry" />
        </mxCell>
        <mxCell id="upFs9hlHG09d8Zoyp-7f-407" value="" style="shape=cube;whiteSpace=wrap;html=1;boundedLbl=1;backgroundOutline=1;darkOpacity=0.05;darkOpacity2=0.1;" vertex="1" parent="1">
          <mxGeometry x="313" y="3657" width="80" height="80" as="geometry" />
        </mxCell>
        <mxCell id="upFs9hlHG09d8Zoyp-7f-408" value="" style="shape=cube;whiteSpace=wrap;html=1;boundedLbl=1;backgroundOutline=1;darkOpacity=0.05;darkOpacity2=0.1;" vertex="1" parent="1">
          <mxGeometry x="253" y="3657" width="80" height="80" as="geometry" />
        </mxCell>
        <mxCell id="upFs9hlHG09d8Zoyp-7f-409" value="" style="shape=cube;whiteSpace=wrap;html=1;boundedLbl=1;backgroundOutline=1;darkOpacity=0.05;darkOpacity2=0.1;" vertex="1" parent="1">
          <mxGeometry x="193" y="3657" width="80" height="80" as="geometry" />
        </mxCell>
        <mxCell id="upFs9hlHG09d8Zoyp-7f-410" value="" style="shape=cube;whiteSpace=wrap;html=1;boundedLbl=1;backgroundOutline=1;darkOpacity=0.05;darkOpacity2=0.1;fillColor=#b0e3e6;strokeColor=#0e8088;" vertex="1" parent="1">
          <mxGeometry x="133.5" y="3657" width="80" height="80" as="geometry" />
        </mxCell>
        <mxCell id="upFs9hlHG09d8Zoyp-7f-411" value="" style="shape=cube;whiteSpace=wrap;html=1;boundedLbl=1;backgroundOutline=1;darkOpacity=0.05;darkOpacity2=0.1;" vertex="1" parent="1">
          <mxGeometry x="392.5" y="3677" width="80" height="80" as="geometry" />
        </mxCell>
        <mxCell id="upFs9hlHG09d8Zoyp-7f-412" value="" style="shape=cube;whiteSpace=wrap;html=1;boundedLbl=1;backgroundOutline=1;darkOpacity=0.05;darkOpacity2=0.1;" vertex="1" parent="1">
          <mxGeometry x="332.5" y="3677" width="80" height="80" as="geometry" />
        </mxCell>
        <mxCell id="upFs9hlHG09d8Zoyp-7f-413" value="" style="shape=cube;whiteSpace=wrap;html=1;boundedLbl=1;backgroundOutline=1;darkOpacity=0.05;darkOpacity2=0.1;" vertex="1" parent="1">
          <mxGeometry x="272.5" y="3677" width="80" height="80" as="geometry" />
        </mxCell>
        <mxCell id="upFs9hlHG09d8Zoyp-7f-414" value="" style="shape=cube;whiteSpace=wrap;html=1;boundedLbl=1;backgroundOutline=1;darkOpacity=0.05;darkOpacity2=0.1;" vertex="1" parent="1">
          <mxGeometry x="212.5" y="3677" width="80" height="80" as="geometry" />
        </mxCell>
        <mxCell id="upFs9hlHG09d8Zoyp-7f-415" value="" style="shape=cube;whiteSpace=wrap;html=1;boundedLbl=1;backgroundOutline=1;darkOpacity=0.05;darkOpacity2=0.1;fillColor=#b0e3e6;strokeColor=#0e8088;" vertex="1" parent="1">
          <mxGeometry x="153" y="3677" width="80" height="80" as="geometry" />
        </mxCell>
        <mxCell id="upFs9hlHG09d8Zoyp-7f-416" value="" style="shape=cube;whiteSpace=wrap;html=1;boundedLbl=1;backgroundOutline=1;darkOpacity=0.05;darkOpacity2=0.1;" vertex="1" parent="1">
          <mxGeometry x="412.5" y="3697" width="80" height="80" as="geometry" />
        </mxCell>
        <mxCell id="upFs9hlHG09d8Zoyp-7f-417" value="" style="shape=cube;whiteSpace=wrap;html=1;boundedLbl=1;backgroundOutline=1;darkOpacity=0.05;darkOpacity2=0.1;" vertex="1" parent="1">
          <mxGeometry x="352.5" y="3697" width="80" height="80" as="geometry" />
        </mxCell>
        <mxCell id="upFs9hlHG09d8Zoyp-7f-418" value="" style="shape=cube;whiteSpace=wrap;html=1;boundedLbl=1;backgroundOutline=1;darkOpacity=0.05;darkOpacity2=0.1;" vertex="1" parent="1">
          <mxGeometry x="292.5" y="3697" width="80" height="80" as="geometry" />
        </mxCell>
        <mxCell id="upFs9hlHG09d8Zoyp-7f-419" value="" style="shape=cube;whiteSpace=wrap;html=1;boundedLbl=1;backgroundOutline=1;darkOpacity=0.05;darkOpacity2=0.1;" vertex="1" parent="1">
          <mxGeometry x="232.5" y="3697" width="80" height="80" as="geometry" />
        </mxCell>
        <mxCell id="upFs9hlHG09d8Zoyp-7f-420" value="" style="shape=cube;whiteSpace=wrap;html=1;boundedLbl=1;backgroundOutline=1;darkOpacity=0.05;darkOpacity2=0.1;fillColor=#b0e3e6;strokeColor=#0e8088;" vertex="1" parent="1">
          <mxGeometry x="173" y="3697" width="80" height="80" as="geometry" />
        </mxCell>
        <mxCell id="upFs9hlHG09d8Zoyp-7f-421" value="" style="shape=cube;whiteSpace=wrap;html=1;boundedLbl=1;backgroundOutline=1;darkOpacity=0.05;darkOpacity2=0.1;" vertex="1" parent="1">
          <mxGeometry x="297" y="3319" width="80" height="80" as="geometry" />
        </mxCell>
        <mxCell id="upFs9hlHG09d8Zoyp-7f-422" value="" style="shape=cube;whiteSpace=wrap;html=1;boundedLbl=1;backgroundOutline=1;darkOpacity=0.05;darkOpacity2=0.1;" vertex="1" parent="1">
          <mxGeometry x="237" y="3319" width="80" height="80" as="geometry" />
        </mxCell>
        <mxCell id="upFs9hlHG09d8Zoyp-7f-423" value="" style="shape=cube;whiteSpace=wrap;html=1;boundedLbl=1;backgroundOutline=1;darkOpacity=0.05;darkOpacity2=0.1;" vertex="1" parent="1">
          <mxGeometry x="177" y="3319" width="80" height="80" as="geometry" />
        </mxCell>
        <mxCell id="upFs9hlHG09d8Zoyp-7f-424" value="" style="shape=cube;whiteSpace=wrap;html=1;boundedLbl=1;backgroundOutline=1;darkOpacity=0.05;darkOpacity2=0.1;" vertex="1" parent="1">
          <mxGeometry x="117" y="3319" width="80" height="80" as="geometry" />
        </mxCell>
        <mxCell id="upFs9hlHG09d8Zoyp-7f-425" value="" style="shape=cube;whiteSpace=wrap;html=1;boundedLbl=1;backgroundOutline=1;darkOpacity=0.05;darkOpacity2=0.1;" vertex="1" parent="1">
          <mxGeometry x="57.5" y="3319" width="80" height="80" as="geometry" />
        </mxCell>
        <mxCell id="upFs9hlHG09d8Zoyp-7f-426" value="" style="shape=cube;whiteSpace=wrap;html=1;boundedLbl=1;backgroundOutline=1;darkOpacity=0.05;darkOpacity2=0.1;" vertex="1" parent="1">
          <mxGeometry x="316.5" y="3339" width="80" height="80" as="geometry" />
        </mxCell>
        <mxCell id="upFs9hlHG09d8Zoyp-7f-427" value="" style="shape=cube;whiteSpace=wrap;html=1;boundedLbl=1;backgroundOutline=1;darkOpacity=0.05;darkOpacity2=0.1;" vertex="1" parent="1">
          <mxGeometry x="256.5" y="3339" width="80" height="80" as="geometry" />
        </mxCell>
        <mxCell id="upFs9hlHG09d8Zoyp-7f-428" value="" style="shape=cube;whiteSpace=wrap;html=1;boundedLbl=1;backgroundOutline=1;darkOpacity=0.05;darkOpacity2=0.1;" vertex="1" parent="1">
          <mxGeometry x="196.5" y="3339" width="80" height="80" as="geometry" />
        </mxCell>
        <mxCell id="upFs9hlHG09d8Zoyp-7f-429" value="" style="shape=cube;whiteSpace=wrap;html=1;boundedLbl=1;backgroundOutline=1;darkOpacity=0.05;darkOpacity2=0.1;" vertex="1" parent="1">
          <mxGeometry x="136.5" y="3339" width="80" height="80" as="geometry" />
        </mxCell>
        <mxCell id="upFs9hlHG09d8Zoyp-7f-430" value="" style="shape=cube;whiteSpace=wrap;html=1;boundedLbl=1;backgroundOutline=1;darkOpacity=0.05;darkOpacity2=0.1;" vertex="1" parent="1">
          <mxGeometry x="77" y="3339" width="80" height="80" as="geometry" />
        </mxCell>
        <mxCell id="upFs9hlHG09d8Zoyp-7f-431" value="" style="shape=cube;whiteSpace=wrap;html=1;boundedLbl=1;backgroundOutline=1;darkOpacity=0.05;darkOpacity2=0.1;" vertex="1" parent="1">
          <mxGeometry x="336.5" y="3359" width="80" height="80" as="geometry" />
        </mxCell>
        <mxCell id="upFs9hlHG09d8Zoyp-7f-432" value="" style="shape=cube;whiteSpace=wrap;html=1;boundedLbl=1;backgroundOutline=1;darkOpacity=0.05;darkOpacity2=0.1;" vertex="1" parent="1">
          <mxGeometry x="276.5" y="3359" width="80" height="80" as="geometry" />
        </mxCell>
        <mxCell id="upFs9hlHG09d8Zoyp-7f-433" value="" style="shape=cube;whiteSpace=wrap;html=1;boundedLbl=1;backgroundOutline=1;darkOpacity=0.05;darkOpacity2=0.1;" vertex="1" parent="1">
          <mxGeometry x="216.5" y="3359" width="80" height="80" as="geometry" />
        </mxCell>
        <mxCell id="upFs9hlHG09d8Zoyp-7f-434" value="" style="shape=cube;whiteSpace=wrap;html=1;boundedLbl=1;backgroundOutline=1;darkOpacity=0.05;darkOpacity2=0.1;" vertex="1" parent="1">
          <mxGeometry x="156.5" y="3359" width="80" height="80" as="geometry" />
        </mxCell>
        <mxCell id="upFs9hlHG09d8Zoyp-7f-435" value="" style="shape=cube;whiteSpace=wrap;html=1;boundedLbl=1;backgroundOutline=1;darkOpacity=0.05;darkOpacity2=0.1;" vertex="1" parent="1">
          <mxGeometry x="97" y="3359" width="80" height="80" as="geometry" />
        </mxCell>
        <mxCell id="upFs9hlHG09d8Zoyp-7f-436" value="" style="shape=cube;whiteSpace=wrap;html=1;boundedLbl=1;backgroundOutline=1;darkOpacity=0.05;darkOpacity2=0.1;" vertex="1" parent="1">
          <mxGeometry x="356" y="3379" width="80" height="80" as="geometry" />
        </mxCell>
        <mxCell id="upFs9hlHG09d8Zoyp-7f-437" value="" style="shape=cube;whiteSpace=wrap;html=1;boundedLbl=1;backgroundOutline=1;darkOpacity=0.05;darkOpacity2=0.1;" vertex="1" parent="1">
          <mxGeometry x="296" y="3379" width="80" height="80" as="geometry" />
        </mxCell>
        <mxCell id="upFs9hlHG09d8Zoyp-7f-438" value="" style="shape=cube;whiteSpace=wrap;html=1;boundedLbl=1;backgroundOutline=1;darkOpacity=0.05;darkOpacity2=0.1;" vertex="1" parent="1">
          <mxGeometry x="236" y="3379" width="80" height="80" as="geometry" />
        </mxCell>
        <mxCell id="upFs9hlHG09d8Zoyp-7f-439" value="" style="shape=cube;whiteSpace=wrap;html=1;boundedLbl=1;backgroundOutline=1;darkOpacity=0.05;darkOpacity2=0.1;" vertex="1" parent="1">
          <mxGeometry x="176" y="3379" width="80" height="80" as="geometry" />
        </mxCell>
        <mxCell id="upFs9hlHG09d8Zoyp-7f-440" value="" style="shape=cube;whiteSpace=wrap;html=1;boundedLbl=1;backgroundOutline=1;darkOpacity=0.05;darkOpacity2=0.1;" vertex="1" parent="1">
          <mxGeometry x="116.5" y="3379" width="80" height="80" as="geometry" />
        </mxCell>
        <mxCell id="upFs9hlHG09d8Zoyp-7f-441" value="" style="shape=cube;whiteSpace=wrap;html=1;boundedLbl=1;backgroundOutline=1;darkOpacity=0.05;darkOpacity2=0.1;" vertex="1" parent="1">
          <mxGeometry x="376" y="3399" width="80" height="80" as="geometry" />
        </mxCell>
        <mxCell id="upFs9hlHG09d8Zoyp-7f-442" value="" style="shape=cube;whiteSpace=wrap;html=1;boundedLbl=1;backgroundOutline=1;darkOpacity=0.05;darkOpacity2=0.1;" vertex="1" parent="1">
          <mxGeometry x="316" y="3399" width="80" height="80" as="geometry" />
        </mxCell>
        <mxCell id="upFs9hlHG09d8Zoyp-7f-443" value="" style="shape=cube;whiteSpace=wrap;html=1;boundedLbl=1;backgroundOutline=1;darkOpacity=0.05;darkOpacity2=0.1;" vertex="1" parent="1">
          <mxGeometry x="256" y="3399" width="80" height="80" as="geometry" />
        </mxCell>
        <mxCell id="upFs9hlHG09d8Zoyp-7f-444" value="" style="shape=cube;whiteSpace=wrap;html=1;boundedLbl=1;backgroundOutline=1;darkOpacity=0.05;darkOpacity2=0.1;" vertex="1" parent="1">
          <mxGeometry x="196" y="3399" width="80" height="80" as="geometry" />
        </mxCell>
        <mxCell id="upFs9hlHG09d8Zoyp-7f-445" value="" style="shape=cube;whiteSpace=wrap;html=1;boundedLbl=1;backgroundOutline=1;darkOpacity=0.05;darkOpacity2=0.1;" vertex="1" parent="1">
          <mxGeometry x="136.5" y="3399" width="80" height="80" as="geometry" />
        </mxCell>
        <mxCell id="upFs9hlHG09d8Zoyp-7f-471" value="" style="shape=cube;whiteSpace=wrap;html=1;boundedLbl=1;backgroundOutline=1;darkOpacity=0.05;darkOpacity2=0.1;" vertex="1" parent="1">
          <mxGeometry x="333.5" y="3557" width="80" height="80" as="geometry" />
        </mxCell>
        <mxCell id="upFs9hlHG09d8Zoyp-7f-472" value="" style="shape=cube;whiteSpace=wrap;html=1;boundedLbl=1;backgroundOutline=1;darkOpacity=0.05;darkOpacity2=0.1;" vertex="1" parent="1">
          <mxGeometry x="273.5" y="3557" width="80" height="80" as="geometry" />
        </mxCell>
        <mxCell id="upFs9hlHG09d8Zoyp-7f-473" value="" style="shape=cube;whiteSpace=wrap;html=1;boundedLbl=1;backgroundOutline=1;darkOpacity=0.05;darkOpacity2=0.1;" vertex="1" parent="1">
          <mxGeometry x="213.5" y="3557" width="80" height="80" as="geometry" />
        </mxCell>
        <mxCell id="upFs9hlHG09d8Zoyp-7f-474" value="" style="shape=cube;whiteSpace=wrap;html=1;boundedLbl=1;backgroundOutline=1;darkOpacity=0.05;darkOpacity2=0.1;" vertex="1" parent="1">
          <mxGeometry x="153.5" y="3557" width="80" height="80" as="geometry" />
        </mxCell>
        <mxCell id="upFs9hlHG09d8Zoyp-7f-475" value="" style="shape=cube;whiteSpace=wrap;html=1;boundedLbl=1;backgroundOutline=1;darkOpacity=0.05;darkOpacity2=0.1;fillColor=#b0e3e6;strokeColor=#0e8088;" vertex="1" parent="1">
          <mxGeometry x="94" y="3557" width="80" height="80" as="geometry" />
        </mxCell>
        <mxCell id="upFs9hlHG09d8Zoyp-7f-476" value="" style="shape=cube;whiteSpace=wrap;html=1;boundedLbl=1;backgroundOutline=1;darkOpacity=0.05;darkOpacity2=0.1;" vertex="1" parent="1">
          <mxGeometry x="353" y="3577" width="80" height="80" as="geometry" />
        </mxCell>
        <mxCell id="upFs9hlHG09d8Zoyp-7f-477" value="" style="shape=cube;whiteSpace=wrap;html=1;boundedLbl=1;backgroundOutline=1;darkOpacity=0.05;darkOpacity2=0.1;" vertex="1" parent="1">
          <mxGeometry x="293" y="3577" width="80" height="80" as="geometry" />
        </mxCell>
        <mxCell id="upFs9hlHG09d8Zoyp-7f-478" value="" style="shape=cube;whiteSpace=wrap;html=1;boundedLbl=1;backgroundOutline=1;darkOpacity=0.05;darkOpacity2=0.1;" vertex="1" parent="1">
          <mxGeometry x="233" y="3577" width="80" height="80" as="geometry" />
        </mxCell>
        <mxCell id="upFs9hlHG09d8Zoyp-7f-479" value="" style="shape=cube;whiteSpace=wrap;html=1;boundedLbl=1;backgroundOutline=1;darkOpacity=0.05;darkOpacity2=0.1;" vertex="1" parent="1">
          <mxGeometry x="173" y="3577" width="80" height="80" as="geometry" />
        </mxCell>
        <mxCell id="upFs9hlHG09d8Zoyp-7f-480" value="" style="shape=cube;whiteSpace=wrap;html=1;boundedLbl=1;backgroundOutline=1;darkOpacity=0.05;darkOpacity2=0.1;fillColor=#b0e3e6;strokeColor=#0e8088;" vertex="1" parent="1">
          <mxGeometry x="113.5" y="3577" width="80" height="80" as="geometry" />
        </mxCell>
        <mxCell id="upFs9hlHG09d8Zoyp-7f-481" value="" style="shape=cube;whiteSpace=wrap;html=1;boundedLbl=1;backgroundOutline=1;darkOpacity=0.05;darkOpacity2=0.1;" vertex="1" parent="1">
          <mxGeometry x="373" y="3597" width="80" height="80" as="geometry" />
        </mxCell>
        <mxCell id="upFs9hlHG09d8Zoyp-7f-482" value="" style="shape=cube;whiteSpace=wrap;html=1;boundedLbl=1;backgroundOutline=1;darkOpacity=0.05;darkOpacity2=0.1;" vertex="1" parent="1">
          <mxGeometry x="313" y="3597" width="80" height="80" as="geometry" />
        </mxCell>
        <mxCell id="upFs9hlHG09d8Zoyp-7f-483" value="" style="shape=cube;whiteSpace=wrap;html=1;boundedLbl=1;backgroundOutline=1;darkOpacity=0.05;darkOpacity2=0.1;" vertex="1" parent="1">
          <mxGeometry x="253" y="3597" width="80" height="80" as="geometry" />
        </mxCell>
        <mxCell id="upFs9hlHG09d8Zoyp-7f-484" value="" style="shape=cube;whiteSpace=wrap;html=1;boundedLbl=1;backgroundOutline=1;darkOpacity=0.05;darkOpacity2=0.1;" vertex="1" parent="1">
          <mxGeometry x="193" y="3597" width="80" height="80" as="geometry" />
        </mxCell>
        <mxCell id="upFs9hlHG09d8Zoyp-7f-485" value="" style="shape=cube;whiteSpace=wrap;html=1;boundedLbl=1;backgroundOutline=1;darkOpacity=0.05;darkOpacity2=0.1;fillColor=#b0e3e6;strokeColor=#0e8088;" vertex="1" parent="1">
          <mxGeometry x="133.5" y="3597" width="80" height="80" as="geometry" />
        </mxCell>
        <mxCell id="upFs9hlHG09d8Zoyp-7f-486" value="" style="shape=cube;whiteSpace=wrap;html=1;boundedLbl=1;backgroundOutline=1;darkOpacity=0.05;darkOpacity2=0.1;" vertex="1" parent="1">
          <mxGeometry x="392.5" y="3617" width="80" height="80" as="geometry" />
        </mxCell>
        <mxCell id="upFs9hlHG09d8Zoyp-7f-487" value="" style="shape=cube;whiteSpace=wrap;html=1;boundedLbl=1;backgroundOutline=1;darkOpacity=0.05;darkOpacity2=0.1;" vertex="1" parent="1">
          <mxGeometry x="332.5" y="3617" width="80" height="80" as="geometry" />
        </mxCell>
        <mxCell id="upFs9hlHG09d8Zoyp-7f-488" value="" style="shape=cube;whiteSpace=wrap;html=1;boundedLbl=1;backgroundOutline=1;darkOpacity=0.05;darkOpacity2=0.1;" vertex="1" parent="1">
          <mxGeometry x="272.5" y="3617" width="80" height="80" as="geometry" />
        </mxCell>
        <mxCell id="upFs9hlHG09d8Zoyp-7f-489" value="" style="shape=cube;whiteSpace=wrap;html=1;boundedLbl=1;backgroundOutline=1;darkOpacity=0.05;darkOpacity2=0.1;" vertex="1" parent="1">
          <mxGeometry x="212.5" y="3617" width="80" height="80" as="geometry" />
        </mxCell>
        <mxCell id="upFs9hlHG09d8Zoyp-7f-490" value="" style="shape=cube;whiteSpace=wrap;html=1;boundedLbl=1;backgroundOutline=1;darkOpacity=0.05;darkOpacity2=0.1;fillColor=#b0e3e6;strokeColor=#0e8088;" vertex="1" parent="1">
          <mxGeometry x="153" y="3617" width="80" height="80" as="geometry" />
        </mxCell>
        <mxCell id="upFs9hlHG09d8Zoyp-7f-491" value="" style="shape=cube;whiteSpace=wrap;html=1;boundedLbl=1;backgroundOutline=1;darkOpacity=0.05;darkOpacity2=0.1;" vertex="1" parent="1">
          <mxGeometry x="412.5" y="3637" width="80" height="80" as="geometry" />
        </mxCell>
        <mxCell id="upFs9hlHG09d8Zoyp-7f-492" value="" style="shape=cube;whiteSpace=wrap;html=1;boundedLbl=1;backgroundOutline=1;darkOpacity=0.05;darkOpacity2=0.1;" vertex="1" parent="1">
          <mxGeometry x="352.5" y="3637" width="80" height="80" as="geometry" />
        </mxCell>
        <mxCell id="upFs9hlHG09d8Zoyp-7f-493" value="" style="shape=cube;whiteSpace=wrap;html=1;boundedLbl=1;backgroundOutline=1;darkOpacity=0.05;darkOpacity2=0.1;" vertex="1" parent="1">
          <mxGeometry x="292.5" y="3637" width="80" height="80" as="geometry" />
        </mxCell>
        <mxCell id="upFs9hlHG09d8Zoyp-7f-494" value="" style="shape=cube;whiteSpace=wrap;html=1;boundedLbl=1;backgroundOutline=1;darkOpacity=0.05;darkOpacity2=0.1;" vertex="1" parent="1">
          <mxGeometry x="232.5" y="3637" width="80" height="80" as="geometry" />
        </mxCell>
        <mxCell id="upFs9hlHG09d8Zoyp-7f-495" value="" style="shape=cube;whiteSpace=wrap;html=1;boundedLbl=1;backgroundOutline=1;darkOpacity=0.05;darkOpacity2=0.1;fillColor=#b0e3e6;strokeColor=#0e8088;gradientColor=none;gradientDirection=east;" vertex="1" parent="1">
          <mxGeometry x="173" y="3637" width="80" height="80" as="geometry" />
        </mxCell>
        <mxCell id="upFs9hlHG09d8Zoyp-7f-496" value="" style="shape=cube;whiteSpace=wrap;html=1;boundedLbl=1;backgroundOutline=1;darkOpacity=0.05;darkOpacity2=0.1;" vertex="1" parent="1">
          <mxGeometry x="889.5" y="3799" width="80" height="80" as="geometry" />
        </mxCell>
        <mxCell id="upFs9hlHG09d8Zoyp-7f-497" value="" style="shape=cube;whiteSpace=wrap;html=1;boundedLbl=1;backgroundOutline=1;darkOpacity=0.05;darkOpacity2=0.1;" vertex="1" parent="1">
          <mxGeometry x="829.5" y="3799" width="80" height="80" as="geometry" />
        </mxCell>
        <mxCell id="upFs9hlHG09d8Zoyp-7f-498" value="" style="shape=cube;whiteSpace=wrap;html=1;boundedLbl=1;backgroundOutline=1;darkOpacity=0.05;darkOpacity2=0.1;" vertex="1" parent="1">
          <mxGeometry x="769.5" y="3799" width="80" height="80" as="geometry" />
        </mxCell>
        <mxCell id="upFs9hlHG09d8Zoyp-7f-499" value="" style="shape=cube;whiteSpace=wrap;html=1;boundedLbl=1;backgroundOutline=1;darkOpacity=0.05;darkOpacity2=0.1;" vertex="1" parent="1">
          <mxGeometry x="709.5" y="3799" width="80" height="80" as="geometry" />
        </mxCell>
        <mxCell id="upFs9hlHG09d8Zoyp-7f-500" value="" style="shape=cube;whiteSpace=wrap;html=1;boundedLbl=1;backgroundOutline=1;darkOpacity=0.05;darkOpacity2=0.1;" vertex="1" parent="1">
          <mxGeometry x="650" y="3799" width="80" height="80" as="geometry" />
        </mxCell>
        <mxCell id="upFs9hlHG09d8Zoyp-7f-501" value="" style="shape=cube;whiteSpace=wrap;html=1;boundedLbl=1;backgroundOutline=1;darkOpacity=0.05;darkOpacity2=0.1;" vertex="1" parent="1">
          <mxGeometry x="909" y="3819" width="80" height="80" as="geometry" />
        </mxCell>
        <mxCell id="upFs9hlHG09d8Zoyp-7f-502" value="" style="shape=cube;whiteSpace=wrap;html=1;boundedLbl=1;backgroundOutline=1;darkOpacity=0.05;darkOpacity2=0.1;" vertex="1" parent="1">
          <mxGeometry x="849" y="3819" width="80" height="80" as="geometry" />
        </mxCell>
        <mxCell id="upFs9hlHG09d8Zoyp-7f-503" value="" style="shape=cube;whiteSpace=wrap;html=1;boundedLbl=1;backgroundOutline=1;darkOpacity=0.05;darkOpacity2=0.1;" vertex="1" parent="1">
          <mxGeometry x="789" y="3819" width="80" height="80" as="geometry" />
        </mxCell>
        <mxCell id="upFs9hlHG09d8Zoyp-7f-504" value="" style="shape=cube;whiteSpace=wrap;html=1;boundedLbl=1;backgroundOutline=1;darkOpacity=0.05;darkOpacity2=0.1;" vertex="1" parent="1">
          <mxGeometry x="729" y="3819" width="80" height="80" as="geometry" />
        </mxCell>
        <mxCell id="upFs9hlHG09d8Zoyp-7f-505" value="" style="shape=cube;whiteSpace=wrap;html=1;boundedLbl=1;backgroundOutline=1;darkOpacity=0.05;darkOpacity2=0.1;" vertex="1" parent="1">
          <mxGeometry x="669.5" y="3819" width="80" height="80" as="geometry" />
        </mxCell>
        <mxCell id="upFs9hlHG09d8Zoyp-7f-506" value="" style="shape=cube;whiteSpace=wrap;html=1;boundedLbl=1;backgroundOutline=1;darkOpacity=0.05;darkOpacity2=0.1;" vertex="1" parent="1">
          <mxGeometry x="929" y="3839" width="80" height="80" as="geometry" />
        </mxCell>
        <mxCell id="upFs9hlHG09d8Zoyp-7f-507" value="" style="shape=cube;whiteSpace=wrap;html=1;boundedLbl=1;backgroundOutline=1;darkOpacity=0.05;darkOpacity2=0.1;" vertex="1" parent="1">
          <mxGeometry x="869" y="3839" width="80" height="80" as="geometry" />
        </mxCell>
        <mxCell id="upFs9hlHG09d8Zoyp-7f-508" value="" style="shape=cube;whiteSpace=wrap;html=1;boundedLbl=1;backgroundOutline=1;darkOpacity=0.05;darkOpacity2=0.1;" vertex="1" parent="1">
          <mxGeometry x="809" y="3839" width="80" height="80" as="geometry" />
        </mxCell>
        <mxCell id="upFs9hlHG09d8Zoyp-7f-509" value="" style="shape=cube;whiteSpace=wrap;html=1;boundedLbl=1;backgroundOutline=1;darkOpacity=0.05;darkOpacity2=0.1;" vertex="1" parent="1">
          <mxGeometry x="749" y="3839" width="80" height="80" as="geometry" />
        </mxCell>
        <mxCell id="upFs9hlHG09d8Zoyp-7f-510" value="" style="shape=cube;whiteSpace=wrap;html=1;boundedLbl=1;backgroundOutline=1;darkOpacity=0.05;darkOpacity2=0.1;" vertex="1" parent="1">
          <mxGeometry x="689.5" y="3839" width="80" height="80" as="geometry" />
        </mxCell>
        <mxCell id="upFs9hlHG09d8Zoyp-7f-511" value="" style="shape=cube;whiteSpace=wrap;html=1;boundedLbl=1;backgroundOutline=1;darkOpacity=0.05;darkOpacity2=0.1;" vertex="1" parent="1">
          <mxGeometry x="948.5" y="3859" width="80" height="80" as="geometry" />
        </mxCell>
        <mxCell id="upFs9hlHG09d8Zoyp-7f-512" value="" style="shape=cube;whiteSpace=wrap;html=1;boundedLbl=1;backgroundOutline=1;darkOpacity=0.05;darkOpacity2=0.1;" vertex="1" parent="1">
          <mxGeometry x="888.5" y="3859" width="80" height="80" as="geometry" />
        </mxCell>
        <mxCell id="upFs9hlHG09d8Zoyp-7f-513" value="" style="shape=cube;whiteSpace=wrap;html=1;boundedLbl=1;backgroundOutline=1;darkOpacity=0.05;darkOpacity2=0.1;" vertex="1" parent="1">
          <mxGeometry x="828.5" y="3859" width="80" height="80" as="geometry" />
        </mxCell>
        <mxCell id="upFs9hlHG09d8Zoyp-7f-514" value="" style="shape=cube;whiteSpace=wrap;html=1;boundedLbl=1;backgroundOutline=1;darkOpacity=0.05;darkOpacity2=0.1;" vertex="1" parent="1">
          <mxGeometry x="768.5" y="3859" width="80" height="80" as="geometry" />
        </mxCell>
        <mxCell id="upFs9hlHG09d8Zoyp-7f-515" value="" style="shape=cube;whiteSpace=wrap;html=1;boundedLbl=1;backgroundOutline=1;darkOpacity=0.05;darkOpacity2=0.1;" vertex="1" parent="1">
          <mxGeometry x="709" y="3859" width="80" height="80" as="geometry" />
        </mxCell>
        <mxCell id="upFs9hlHG09d8Zoyp-7f-516" value="" style="shape=cube;whiteSpace=wrap;html=1;boundedLbl=1;backgroundOutline=1;darkOpacity=0.05;darkOpacity2=0.1;" vertex="1" parent="1">
          <mxGeometry x="968.5" y="3879" width="80" height="80" as="geometry" />
        </mxCell>
        <mxCell id="upFs9hlHG09d8Zoyp-7f-517" value="" style="shape=cube;whiteSpace=wrap;html=1;boundedLbl=1;backgroundOutline=1;darkOpacity=0.05;darkOpacity2=0.1;" vertex="1" parent="1">
          <mxGeometry x="908.5" y="3879" width="80" height="80" as="geometry" />
        </mxCell>
        <mxCell id="upFs9hlHG09d8Zoyp-7f-518" value="" style="shape=cube;whiteSpace=wrap;html=1;boundedLbl=1;backgroundOutline=1;darkOpacity=0.05;darkOpacity2=0.1;" vertex="1" parent="1">
          <mxGeometry x="848.5" y="3879" width="80" height="80" as="geometry" />
        </mxCell>
        <mxCell id="upFs9hlHG09d8Zoyp-7f-519" value="" style="shape=cube;whiteSpace=wrap;html=1;boundedLbl=1;backgroundOutline=1;darkOpacity=0.05;darkOpacity2=0.1;" vertex="1" parent="1">
          <mxGeometry x="788.5" y="3879" width="80" height="80" as="geometry" />
        </mxCell>
        <mxCell id="upFs9hlHG09d8Zoyp-7f-520" value="" style="shape=cube;whiteSpace=wrap;html=1;boundedLbl=1;backgroundOutline=1;darkOpacity=0.05;darkOpacity2=0.1;" vertex="1" parent="1">
          <mxGeometry x="729" y="3879" width="80" height="80" as="geometry" />
        </mxCell>
        <mxCell id="upFs9hlHG09d8Zoyp-7f-521" value="" style="shape=cube;whiteSpace=wrap;html=1;boundedLbl=1;backgroundOutline=1;darkOpacity=0.05;darkOpacity2=0.1;" vertex="1" parent="1">
          <mxGeometry x="889.5" y="3739" width="80" height="80" as="geometry" />
        </mxCell>
        <mxCell id="upFs9hlHG09d8Zoyp-7f-522" value="" style="shape=cube;whiteSpace=wrap;html=1;boundedLbl=1;backgroundOutline=1;darkOpacity=0.05;darkOpacity2=0.1;" vertex="1" parent="1">
          <mxGeometry x="829.5" y="3739" width="80" height="80" as="geometry" />
        </mxCell>
        <mxCell id="upFs9hlHG09d8Zoyp-7f-523" value="" style="shape=cube;whiteSpace=wrap;html=1;boundedLbl=1;backgroundOutline=1;darkOpacity=0.05;darkOpacity2=0.1;" vertex="1" parent="1">
          <mxGeometry x="769.5" y="3739" width="80" height="80" as="geometry" />
        </mxCell>
        <mxCell id="upFs9hlHG09d8Zoyp-7f-524" value="" style="shape=cube;whiteSpace=wrap;html=1;boundedLbl=1;backgroundOutline=1;darkOpacity=0.05;darkOpacity2=0.1;" vertex="1" parent="1">
          <mxGeometry x="709.5" y="3739" width="80" height="80" as="geometry" />
        </mxCell>
        <mxCell id="upFs9hlHG09d8Zoyp-7f-525" value="" style="shape=cube;whiteSpace=wrap;html=1;boundedLbl=1;backgroundOutline=1;darkOpacity=0.05;darkOpacity2=0.1;" vertex="1" parent="1">
          <mxGeometry x="650" y="3739" width="80" height="80" as="geometry" />
        </mxCell>
        <mxCell id="upFs9hlHG09d8Zoyp-7f-526" value="" style="shape=cube;whiteSpace=wrap;html=1;boundedLbl=1;backgroundOutline=1;darkOpacity=0.05;darkOpacity2=0.1;" vertex="1" parent="1">
          <mxGeometry x="909" y="3759" width="80" height="80" as="geometry" />
        </mxCell>
        <mxCell id="upFs9hlHG09d8Zoyp-7f-527" value="" style="shape=cube;whiteSpace=wrap;html=1;boundedLbl=1;backgroundOutline=1;darkOpacity=0.05;darkOpacity2=0.1;" vertex="1" parent="1">
          <mxGeometry x="849" y="3759" width="80" height="80" as="geometry" />
        </mxCell>
        <mxCell id="upFs9hlHG09d8Zoyp-7f-528" value="" style="shape=cube;whiteSpace=wrap;html=1;boundedLbl=1;backgroundOutline=1;darkOpacity=0.05;darkOpacity2=0.1;" vertex="1" parent="1">
          <mxGeometry x="789" y="3759" width="80" height="80" as="geometry" />
        </mxCell>
        <mxCell id="upFs9hlHG09d8Zoyp-7f-529" value="" style="shape=cube;whiteSpace=wrap;html=1;boundedLbl=1;backgroundOutline=1;darkOpacity=0.05;darkOpacity2=0.1;" vertex="1" parent="1">
          <mxGeometry x="729" y="3759" width="80" height="80" as="geometry" />
        </mxCell>
        <mxCell id="upFs9hlHG09d8Zoyp-7f-530" value="" style="shape=cube;whiteSpace=wrap;html=1;boundedLbl=1;backgroundOutline=1;darkOpacity=0.05;darkOpacity2=0.1;" vertex="1" parent="1">
          <mxGeometry x="669.5" y="3759" width="80" height="80" as="geometry" />
        </mxCell>
        <mxCell id="upFs9hlHG09d8Zoyp-7f-531" value="" style="shape=cube;whiteSpace=wrap;html=1;boundedLbl=1;backgroundOutline=1;darkOpacity=0.05;darkOpacity2=0.1;" vertex="1" parent="1">
          <mxGeometry x="929" y="3779" width="80" height="80" as="geometry" />
        </mxCell>
        <mxCell id="upFs9hlHG09d8Zoyp-7f-532" value="" style="shape=cube;whiteSpace=wrap;html=1;boundedLbl=1;backgroundOutline=1;darkOpacity=0.05;darkOpacity2=0.1;" vertex="1" parent="1">
          <mxGeometry x="869" y="3779" width="80" height="80" as="geometry" />
        </mxCell>
        <mxCell id="upFs9hlHG09d8Zoyp-7f-533" value="" style="shape=cube;whiteSpace=wrap;html=1;boundedLbl=1;backgroundOutline=1;darkOpacity=0.05;darkOpacity2=0.1;" vertex="1" parent="1">
          <mxGeometry x="809" y="3779" width="80" height="80" as="geometry" />
        </mxCell>
        <mxCell id="upFs9hlHG09d8Zoyp-7f-534" value="" style="shape=cube;whiteSpace=wrap;html=1;boundedLbl=1;backgroundOutline=1;darkOpacity=0.05;darkOpacity2=0.1;" vertex="1" parent="1">
          <mxGeometry x="749" y="3779" width="80" height="80" as="geometry" />
        </mxCell>
        <mxCell id="upFs9hlHG09d8Zoyp-7f-535" value="" style="shape=cube;whiteSpace=wrap;html=1;boundedLbl=1;backgroundOutline=1;darkOpacity=0.05;darkOpacity2=0.1;" vertex="1" parent="1">
          <mxGeometry x="689.5" y="3779" width="80" height="80" as="geometry" />
        </mxCell>
        <mxCell id="upFs9hlHG09d8Zoyp-7f-536" value="" style="shape=cube;whiteSpace=wrap;html=1;boundedLbl=1;backgroundOutline=1;darkOpacity=0.05;darkOpacity2=0.1;" vertex="1" parent="1">
          <mxGeometry x="948.5" y="3799" width="80" height="80" as="geometry" />
        </mxCell>
        <mxCell id="upFs9hlHG09d8Zoyp-7f-537" value="" style="shape=cube;whiteSpace=wrap;html=1;boundedLbl=1;backgroundOutline=1;darkOpacity=0.05;darkOpacity2=0.1;" vertex="1" parent="1">
          <mxGeometry x="888.5" y="3799" width="80" height="80" as="geometry" />
        </mxCell>
        <mxCell id="upFs9hlHG09d8Zoyp-7f-538" value="" style="shape=cube;whiteSpace=wrap;html=1;boundedLbl=1;backgroundOutline=1;darkOpacity=0.05;darkOpacity2=0.1;" vertex="1" parent="1">
          <mxGeometry x="828.5" y="3799" width="80" height="80" as="geometry" />
        </mxCell>
        <mxCell id="upFs9hlHG09d8Zoyp-7f-539" value="" style="shape=cube;whiteSpace=wrap;html=1;boundedLbl=1;backgroundOutline=1;darkOpacity=0.05;darkOpacity2=0.1;" vertex="1" parent="1">
          <mxGeometry x="768.5" y="3799" width="80" height="80" as="geometry" />
        </mxCell>
        <mxCell id="upFs9hlHG09d8Zoyp-7f-540" value="" style="shape=cube;whiteSpace=wrap;html=1;boundedLbl=1;backgroundOutline=1;darkOpacity=0.05;darkOpacity2=0.1;" vertex="1" parent="1">
          <mxGeometry x="709" y="3799" width="80" height="80" as="geometry" />
        </mxCell>
        <mxCell id="upFs9hlHG09d8Zoyp-7f-541" value="" style="shape=cube;whiteSpace=wrap;html=1;boundedLbl=1;backgroundOutline=1;darkOpacity=0.05;darkOpacity2=0.1;" vertex="1" parent="1">
          <mxGeometry x="968.5" y="3819" width="80" height="80" as="geometry" />
        </mxCell>
        <mxCell id="upFs9hlHG09d8Zoyp-7f-542" value="" style="shape=cube;whiteSpace=wrap;html=1;boundedLbl=1;backgroundOutline=1;darkOpacity=0.05;darkOpacity2=0.1;" vertex="1" parent="1">
          <mxGeometry x="908.5" y="3819" width="80" height="80" as="geometry" />
        </mxCell>
        <mxCell id="upFs9hlHG09d8Zoyp-7f-543" value="" style="shape=cube;whiteSpace=wrap;html=1;boundedLbl=1;backgroundOutline=1;darkOpacity=0.05;darkOpacity2=0.1;" vertex="1" parent="1">
          <mxGeometry x="848.5" y="3819" width="80" height="80" as="geometry" />
        </mxCell>
        <mxCell id="upFs9hlHG09d8Zoyp-7f-544" value="" style="shape=cube;whiteSpace=wrap;html=1;boundedLbl=1;backgroundOutline=1;darkOpacity=0.05;darkOpacity2=0.1;" vertex="1" parent="1">
          <mxGeometry x="788.5" y="3819" width="80" height="80" as="geometry" />
        </mxCell>
        <mxCell id="upFs9hlHG09d8Zoyp-7f-545" value="" style="shape=cube;whiteSpace=wrap;html=1;boundedLbl=1;backgroundOutline=1;darkOpacity=0.05;darkOpacity2=0.1;" vertex="1" parent="1">
          <mxGeometry x="729" y="3819" width="80" height="80" as="geometry" />
        </mxCell>
        <mxCell id="upFs9hlHG09d8Zoyp-7f-546" value="" style="shape=cube;whiteSpace=wrap;html=1;boundedLbl=1;backgroundOutline=1;darkOpacity=0.05;darkOpacity2=0.1;" vertex="1" parent="1">
          <mxGeometry x="889.5" y="3679" width="80" height="80" as="geometry" />
        </mxCell>
        <mxCell id="upFs9hlHG09d8Zoyp-7f-547" value="" style="shape=cube;whiteSpace=wrap;html=1;boundedLbl=1;backgroundOutline=1;darkOpacity=0.05;darkOpacity2=0.1;" vertex="1" parent="1">
          <mxGeometry x="829.5" y="3679" width="80" height="80" as="geometry" />
        </mxCell>
        <mxCell id="upFs9hlHG09d8Zoyp-7f-548" value="" style="shape=cube;whiteSpace=wrap;html=1;boundedLbl=1;backgroundOutline=1;darkOpacity=0.05;darkOpacity2=0.1;" vertex="1" parent="1">
          <mxGeometry x="769.5" y="3679" width="80" height="80" as="geometry" />
        </mxCell>
        <mxCell id="upFs9hlHG09d8Zoyp-7f-549" value="" style="shape=cube;whiteSpace=wrap;html=1;boundedLbl=1;backgroundOutline=1;darkOpacity=0.05;darkOpacity2=0.1;" vertex="1" parent="1">
          <mxGeometry x="709.5" y="3679" width="80" height="80" as="geometry" />
        </mxCell>
        <mxCell id="upFs9hlHG09d8Zoyp-7f-550" value="" style="shape=cube;whiteSpace=wrap;html=1;boundedLbl=1;backgroundOutline=1;darkOpacity=0.05;darkOpacity2=0.1;" vertex="1" parent="1">
          <mxGeometry x="650" y="3679" width="80" height="80" as="geometry" />
        </mxCell>
        <mxCell id="upFs9hlHG09d8Zoyp-7f-551" value="" style="shape=cube;whiteSpace=wrap;html=1;boundedLbl=1;backgroundOutline=1;darkOpacity=0.05;darkOpacity2=0.1;" vertex="1" parent="1">
          <mxGeometry x="909" y="3699" width="80" height="80" as="geometry" />
        </mxCell>
        <mxCell id="upFs9hlHG09d8Zoyp-7f-552" value="" style="shape=cube;whiteSpace=wrap;html=1;boundedLbl=1;backgroundOutline=1;darkOpacity=0.05;darkOpacity2=0.1;" vertex="1" parent="1">
          <mxGeometry x="849" y="3699" width="80" height="80" as="geometry" />
        </mxCell>
        <mxCell id="upFs9hlHG09d8Zoyp-7f-553" value="" style="shape=cube;whiteSpace=wrap;html=1;boundedLbl=1;backgroundOutline=1;darkOpacity=0.05;darkOpacity2=0.1;" vertex="1" parent="1">
          <mxGeometry x="789" y="3699" width="80" height="80" as="geometry" />
        </mxCell>
        <mxCell id="upFs9hlHG09d8Zoyp-7f-554" value="" style="shape=cube;whiteSpace=wrap;html=1;boundedLbl=1;backgroundOutline=1;darkOpacity=0.05;darkOpacity2=0.1;" vertex="1" parent="1">
          <mxGeometry x="729" y="3699" width="80" height="80" as="geometry" />
        </mxCell>
        <mxCell id="upFs9hlHG09d8Zoyp-7f-555" value="" style="shape=cube;whiteSpace=wrap;html=1;boundedLbl=1;backgroundOutline=1;darkOpacity=0.05;darkOpacity2=0.1;" vertex="1" parent="1">
          <mxGeometry x="669.5" y="3699" width="80" height="80" as="geometry" />
        </mxCell>
        <mxCell id="upFs9hlHG09d8Zoyp-7f-556" value="" style="shape=cube;whiteSpace=wrap;html=1;boundedLbl=1;backgroundOutline=1;darkOpacity=0.05;darkOpacity2=0.1;" vertex="1" parent="1">
          <mxGeometry x="929" y="3719" width="80" height="80" as="geometry" />
        </mxCell>
        <mxCell id="upFs9hlHG09d8Zoyp-7f-557" value="" style="shape=cube;whiteSpace=wrap;html=1;boundedLbl=1;backgroundOutline=1;darkOpacity=0.05;darkOpacity2=0.1;" vertex="1" parent="1">
          <mxGeometry x="869" y="3719" width="80" height="80" as="geometry" />
        </mxCell>
        <mxCell id="upFs9hlHG09d8Zoyp-7f-558" value="" style="shape=cube;whiteSpace=wrap;html=1;boundedLbl=1;backgroundOutline=1;darkOpacity=0.05;darkOpacity2=0.1;" vertex="1" parent="1">
          <mxGeometry x="809" y="3719" width="80" height="80" as="geometry" />
        </mxCell>
        <mxCell id="upFs9hlHG09d8Zoyp-7f-559" value="" style="shape=cube;whiteSpace=wrap;html=1;boundedLbl=1;backgroundOutline=1;darkOpacity=0.05;darkOpacity2=0.1;" vertex="1" parent="1">
          <mxGeometry x="749" y="3719" width="80" height="80" as="geometry" />
        </mxCell>
        <mxCell id="upFs9hlHG09d8Zoyp-7f-560" value="" style="shape=cube;whiteSpace=wrap;html=1;boundedLbl=1;backgroundOutline=1;darkOpacity=0.05;darkOpacity2=0.1;" vertex="1" parent="1">
          <mxGeometry x="689.5" y="3719" width="80" height="80" as="geometry" />
        </mxCell>
        <mxCell id="upFs9hlHG09d8Zoyp-7f-561" value="" style="shape=cube;whiteSpace=wrap;html=1;boundedLbl=1;backgroundOutline=1;darkOpacity=0.05;darkOpacity2=0.1;" vertex="1" parent="1">
          <mxGeometry x="948.5" y="3739" width="80" height="80" as="geometry" />
        </mxCell>
        <mxCell id="upFs9hlHG09d8Zoyp-7f-562" value="" style="shape=cube;whiteSpace=wrap;html=1;boundedLbl=1;backgroundOutline=1;darkOpacity=0.05;darkOpacity2=0.1;" vertex="1" parent="1">
          <mxGeometry x="888.5" y="3739" width="80" height="80" as="geometry" />
        </mxCell>
        <mxCell id="upFs9hlHG09d8Zoyp-7f-563" value="" style="shape=cube;whiteSpace=wrap;html=1;boundedLbl=1;backgroundOutline=1;darkOpacity=0.05;darkOpacity2=0.1;" vertex="1" parent="1">
          <mxGeometry x="828.5" y="3739" width="80" height="80" as="geometry" />
        </mxCell>
        <mxCell id="upFs9hlHG09d8Zoyp-7f-564" value="" style="shape=cube;whiteSpace=wrap;html=1;boundedLbl=1;backgroundOutline=1;darkOpacity=0.05;darkOpacity2=0.1;" vertex="1" parent="1">
          <mxGeometry x="768.5" y="3739" width="80" height="80" as="geometry" />
        </mxCell>
        <mxCell id="upFs9hlHG09d8Zoyp-7f-565" value="" style="shape=cube;whiteSpace=wrap;html=1;boundedLbl=1;backgroundOutline=1;darkOpacity=0.05;darkOpacity2=0.1;" vertex="1" parent="1">
          <mxGeometry x="709" y="3739" width="80" height="80" as="geometry" />
        </mxCell>
        <mxCell id="upFs9hlHG09d8Zoyp-7f-566" value="" style="shape=cube;whiteSpace=wrap;html=1;boundedLbl=1;backgroundOutline=1;darkOpacity=0.05;darkOpacity2=0.1;" vertex="1" parent="1">
          <mxGeometry x="968.5" y="3759" width="80" height="80" as="geometry" />
        </mxCell>
        <mxCell id="upFs9hlHG09d8Zoyp-7f-567" value="" style="shape=cube;whiteSpace=wrap;html=1;boundedLbl=1;backgroundOutline=1;darkOpacity=0.05;darkOpacity2=0.1;" vertex="1" parent="1">
          <mxGeometry x="908.5" y="3759" width="80" height="80" as="geometry" />
        </mxCell>
        <mxCell id="upFs9hlHG09d8Zoyp-7f-568" value="" style="shape=cube;whiteSpace=wrap;html=1;boundedLbl=1;backgroundOutline=1;darkOpacity=0.05;darkOpacity2=0.1;" vertex="1" parent="1">
          <mxGeometry x="848.5" y="3759" width="80" height="80" as="geometry" />
        </mxCell>
        <mxCell id="upFs9hlHG09d8Zoyp-7f-569" value="" style="shape=cube;whiteSpace=wrap;html=1;boundedLbl=1;backgroundOutline=1;darkOpacity=0.05;darkOpacity2=0.1;" vertex="1" parent="1">
          <mxGeometry x="788.5" y="3759" width="80" height="80" as="geometry" />
        </mxCell>
        <mxCell id="upFs9hlHG09d8Zoyp-7f-570" value="" style="shape=cube;whiteSpace=wrap;html=1;boundedLbl=1;backgroundOutline=1;darkOpacity=0.05;darkOpacity2=0.1;" vertex="1" parent="1">
          <mxGeometry x="729" y="3759" width="80" height="80" as="geometry" />
        </mxCell>
        <mxCell id="upFs9hlHG09d8Zoyp-7f-571" value="" style="shape=cube;whiteSpace=wrap;html=1;boundedLbl=1;backgroundOutline=1;darkOpacity=0.05;darkOpacity2=0.1;" vertex="1" parent="1">
          <mxGeometry x="889.5" y="3619" width="80" height="80" as="geometry" />
        </mxCell>
        <mxCell id="upFs9hlHG09d8Zoyp-7f-572" value="" style="shape=cube;whiteSpace=wrap;html=1;boundedLbl=1;backgroundOutline=1;darkOpacity=0.05;darkOpacity2=0.1;" vertex="1" parent="1">
          <mxGeometry x="829.5" y="3619" width="80" height="80" as="geometry" />
        </mxCell>
        <mxCell id="upFs9hlHG09d8Zoyp-7f-573" value="" style="shape=cube;whiteSpace=wrap;html=1;boundedLbl=1;backgroundOutline=1;darkOpacity=0.05;darkOpacity2=0.1;" vertex="1" parent="1">
          <mxGeometry x="769.5" y="3619" width="80" height="80" as="geometry" />
        </mxCell>
        <mxCell id="upFs9hlHG09d8Zoyp-7f-574" value="" style="shape=cube;whiteSpace=wrap;html=1;boundedLbl=1;backgroundOutline=1;darkOpacity=0.05;darkOpacity2=0.1;" vertex="1" parent="1">
          <mxGeometry x="709.5" y="3619" width="80" height="80" as="geometry" />
        </mxCell>
        <mxCell id="upFs9hlHG09d8Zoyp-7f-575" value="" style="shape=cube;whiteSpace=wrap;html=1;boundedLbl=1;backgroundOutline=1;darkOpacity=0.05;darkOpacity2=0.1;fillColor=#fad7ac;strokeColor=#b46504;" vertex="1" parent="1">
          <mxGeometry x="650" y="3619" width="80" height="80" as="geometry" />
        </mxCell>
        <mxCell id="upFs9hlHG09d8Zoyp-7f-576" value="" style="shape=cube;whiteSpace=wrap;html=1;boundedLbl=1;backgroundOutline=1;darkOpacity=0.05;darkOpacity2=0.1;" vertex="1" parent="1">
          <mxGeometry x="909" y="3639" width="80" height="80" as="geometry" />
        </mxCell>
        <mxCell id="upFs9hlHG09d8Zoyp-7f-577" value="" style="shape=cube;whiteSpace=wrap;html=1;boundedLbl=1;backgroundOutline=1;darkOpacity=0.05;darkOpacity2=0.1;" vertex="1" parent="1">
          <mxGeometry x="849" y="3639" width="80" height="80" as="geometry" />
        </mxCell>
        <mxCell id="upFs9hlHG09d8Zoyp-7f-578" value="" style="shape=cube;whiteSpace=wrap;html=1;boundedLbl=1;backgroundOutline=1;darkOpacity=0.05;darkOpacity2=0.1;" vertex="1" parent="1">
          <mxGeometry x="789" y="3639" width="80" height="80" as="geometry" />
        </mxCell>
        <mxCell id="upFs9hlHG09d8Zoyp-7f-579" value="" style="shape=cube;whiteSpace=wrap;html=1;boundedLbl=1;backgroundOutline=1;darkOpacity=0.05;darkOpacity2=0.1;" vertex="1" parent="1">
          <mxGeometry x="729" y="3639" width="80" height="80" as="geometry" />
        </mxCell>
        <mxCell id="upFs9hlHG09d8Zoyp-7f-580" value="" style="shape=cube;whiteSpace=wrap;html=1;boundedLbl=1;backgroundOutline=1;darkOpacity=0.05;darkOpacity2=0.1;fillColor=#fad7ac;strokeColor=#b46504;" vertex="1" parent="1">
          <mxGeometry x="669.5" y="3639" width="80" height="80" as="geometry" />
        </mxCell>
        <mxCell id="upFs9hlHG09d8Zoyp-7f-581" value="" style="shape=cube;whiteSpace=wrap;html=1;boundedLbl=1;backgroundOutline=1;darkOpacity=0.05;darkOpacity2=0.1;" vertex="1" parent="1">
          <mxGeometry x="929" y="3659" width="80" height="80" as="geometry" />
        </mxCell>
        <mxCell id="upFs9hlHG09d8Zoyp-7f-582" value="" style="shape=cube;whiteSpace=wrap;html=1;boundedLbl=1;backgroundOutline=1;darkOpacity=0.05;darkOpacity2=0.1;" vertex="1" parent="1">
          <mxGeometry x="869" y="3659" width="80" height="80" as="geometry" />
        </mxCell>
        <mxCell id="upFs9hlHG09d8Zoyp-7f-583" value="" style="shape=cube;whiteSpace=wrap;html=1;boundedLbl=1;backgroundOutline=1;darkOpacity=0.05;darkOpacity2=0.1;" vertex="1" parent="1">
          <mxGeometry x="809" y="3659" width="80" height="80" as="geometry" />
        </mxCell>
        <mxCell id="upFs9hlHG09d8Zoyp-7f-584" value="" style="shape=cube;whiteSpace=wrap;html=1;boundedLbl=1;backgroundOutline=1;darkOpacity=0.05;darkOpacity2=0.1;" vertex="1" parent="1">
          <mxGeometry x="749" y="3659" width="80" height="80" as="geometry" />
        </mxCell>
        <mxCell id="upFs9hlHG09d8Zoyp-7f-585" value="" style="shape=cube;whiteSpace=wrap;html=1;boundedLbl=1;backgroundOutline=1;darkOpacity=0.05;darkOpacity2=0.1;fillColor=#fad7ac;strokeColor=#b46504;" vertex="1" parent="1">
          <mxGeometry x="689.5" y="3659" width="80" height="80" as="geometry" />
        </mxCell>
        <mxCell id="upFs9hlHG09d8Zoyp-7f-586" value="" style="shape=cube;whiteSpace=wrap;html=1;boundedLbl=1;backgroundOutline=1;darkOpacity=0.05;darkOpacity2=0.1;" vertex="1" parent="1">
          <mxGeometry x="948.5" y="3679" width="80" height="80" as="geometry" />
        </mxCell>
        <mxCell id="upFs9hlHG09d8Zoyp-7f-587" value="" style="shape=cube;whiteSpace=wrap;html=1;boundedLbl=1;backgroundOutline=1;darkOpacity=0.05;darkOpacity2=0.1;" vertex="1" parent="1">
          <mxGeometry x="888.5" y="3679" width="80" height="80" as="geometry" />
        </mxCell>
        <mxCell id="upFs9hlHG09d8Zoyp-7f-588" value="" style="shape=cube;whiteSpace=wrap;html=1;boundedLbl=1;backgroundOutline=1;darkOpacity=0.05;darkOpacity2=0.1;" vertex="1" parent="1">
          <mxGeometry x="828.5" y="3679" width="80" height="80" as="geometry" />
        </mxCell>
        <mxCell id="upFs9hlHG09d8Zoyp-7f-589" value="" style="shape=cube;whiteSpace=wrap;html=1;boundedLbl=1;backgroundOutline=1;darkOpacity=0.05;darkOpacity2=0.1;" vertex="1" parent="1">
          <mxGeometry x="768.5" y="3679" width="80" height="80" as="geometry" />
        </mxCell>
        <mxCell id="upFs9hlHG09d8Zoyp-7f-590" value="" style="shape=cube;whiteSpace=wrap;html=1;boundedLbl=1;backgroundOutline=1;darkOpacity=0.05;darkOpacity2=0.1;fillColor=#fad7ac;strokeColor=#b46504;" vertex="1" parent="1">
          <mxGeometry x="709" y="3679" width="80" height="80" as="geometry" />
        </mxCell>
        <mxCell id="upFs9hlHG09d8Zoyp-7f-591" value="" style="shape=cube;whiteSpace=wrap;html=1;boundedLbl=1;backgroundOutline=1;darkOpacity=0.05;darkOpacity2=0.1;fillColor=#fad7ac;strokeColor=#b46504;" vertex="1" parent="1">
          <mxGeometry x="968.5" y="3699" width="80" height="80" as="geometry" />
        </mxCell>
        <mxCell id="upFs9hlHG09d8Zoyp-7f-592" value="" style="shape=cube;whiteSpace=wrap;html=1;boundedLbl=1;backgroundOutline=1;darkOpacity=0.05;darkOpacity2=0.1;fillColor=#fad7ac;strokeColor=#b46504;" vertex="1" parent="1">
          <mxGeometry x="908.5" y="3699" width="80" height="80" as="geometry" />
        </mxCell>
        <mxCell id="upFs9hlHG09d8Zoyp-7f-593" value="" style="shape=cube;whiteSpace=wrap;html=1;boundedLbl=1;backgroundOutline=1;darkOpacity=0.05;darkOpacity2=0.1;fillColor=#fad7ac;strokeColor=#b46504;" vertex="1" parent="1">
          <mxGeometry x="848.5" y="3699" width="80" height="80" as="geometry" />
        </mxCell>
        <mxCell id="upFs9hlHG09d8Zoyp-7f-594" value="" style="shape=cube;whiteSpace=wrap;html=1;boundedLbl=1;backgroundOutline=1;darkOpacity=0.05;darkOpacity2=0.1;fillColor=#fad7ac;strokeColor=#b46504;" vertex="1" parent="1">
          <mxGeometry x="788.5" y="3699" width="80" height="80" as="geometry" />
        </mxCell>
        <mxCell id="upFs9hlHG09d8Zoyp-7f-595" value="" style="shape=cube;whiteSpace=wrap;html=1;boundedLbl=1;backgroundOutline=1;darkOpacity=0.05;darkOpacity2=0.1;fillColor=#fad7ac;strokeColor=#b46504;" vertex="1" parent="1">
          <mxGeometry x="729" y="3699" width="80" height="80" as="geometry" />
        </mxCell>
        <mxCell id="upFs9hlHG09d8Zoyp-7f-596" value="" style="shape=cube;whiteSpace=wrap;html=1;boundedLbl=1;backgroundOutline=1;darkOpacity=0.05;darkOpacity2=0.1;" vertex="1" parent="1">
          <mxGeometry x="889.5" y="3559" width="80" height="80" as="geometry" />
        </mxCell>
        <mxCell id="upFs9hlHG09d8Zoyp-7f-597" value="" style="shape=cube;whiteSpace=wrap;html=1;boundedLbl=1;backgroundOutline=1;darkOpacity=0.05;darkOpacity2=0.1;" vertex="1" parent="1">
          <mxGeometry x="829.5" y="3559" width="80" height="80" as="geometry" />
        </mxCell>
        <mxCell id="upFs9hlHG09d8Zoyp-7f-598" value="" style="shape=cube;whiteSpace=wrap;html=1;boundedLbl=1;backgroundOutline=1;darkOpacity=0.05;darkOpacity2=0.1;" vertex="1" parent="1">
          <mxGeometry x="769.5" y="3559" width="80" height="80" as="geometry" />
        </mxCell>
        <mxCell id="upFs9hlHG09d8Zoyp-7f-599" value="" style="shape=cube;whiteSpace=wrap;html=1;boundedLbl=1;backgroundOutline=1;darkOpacity=0.05;darkOpacity2=0.1;" vertex="1" parent="1">
          <mxGeometry x="709.5" y="3559" width="80" height="80" as="geometry" />
        </mxCell>
        <mxCell id="upFs9hlHG09d8Zoyp-7f-600" value="" style="shape=cube;whiteSpace=wrap;html=1;boundedLbl=1;backgroundOutline=1;darkOpacity=0.05;darkOpacity2=0.1;" vertex="1" parent="1">
          <mxGeometry x="650" y="3559" width="80" height="80" as="geometry" />
        </mxCell>
        <mxCell id="upFs9hlHG09d8Zoyp-7f-601" value="" style="shape=cube;whiteSpace=wrap;html=1;boundedLbl=1;backgroundOutline=1;darkOpacity=0.05;darkOpacity2=0.1;" vertex="1" parent="1">
          <mxGeometry x="909" y="3579" width="80" height="80" as="geometry" />
        </mxCell>
        <mxCell id="upFs9hlHG09d8Zoyp-7f-602" value="" style="shape=cube;whiteSpace=wrap;html=1;boundedLbl=1;backgroundOutline=1;darkOpacity=0.05;darkOpacity2=0.1;" vertex="1" parent="1">
          <mxGeometry x="849" y="3579" width="80" height="80" as="geometry" />
        </mxCell>
        <mxCell id="upFs9hlHG09d8Zoyp-7f-603" value="" style="shape=cube;whiteSpace=wrap;html=1;boundedLbl=1;backgroundOutline=1;darkOpacity=0.05;darkOpacity2=0.1;" vertex="1" parent="1">
          <mxGeometry x="789" y="3579" width="80" height="80" as="geometry" />
        </mxCell>
        <mxCell id="upFs9hlHG09d8Zoyp-7f-604" value="" style="shape=cube;whiteSpace=wrap;html=1;boundedLbl=1;backgroundOutline=1;darkOpacity=0.05;darkOpacity2=0.1;" vertex="1" parent="1">
          <mxGeometry x="729" y="3579" width="80" height="80" as="geometry" />
        </mxCell>
        <mxCell id="upFs9hlHG09d8Zoyp-7f-605" value="" style="shape=cube;whiteSpace=wrap;html=1;boundedLbl=1;backgroundOutline=1;darkOpacity=0.05;darkOpacity2=0.1;" vertex="1" parent="1">
          <mxGeometry x="669.5" y="3579" width="80" height="80" as="geometry" />
        </mxCell>
        <mxCell id="upFs9hlHG09d8Zoyp-7f-606" value="" style="shape=cube;whiteSpace=wrap;html=1;boundedLbl=1;backgroundOutline=1;darkOpacity=0.05;darkOpacity2=0.1;" vertex="1" parent="1">
          <mxGeometry x="929" y="3599" width="80" height="80" as="geometry" />
        </mxCell>
        <mxCell id="upFs9hlHG09d8Zoyp-7f-607" value="" style="shape=cube;whiteSpace=wrap;html=1;boundedLbl=1;backgroundOutline=1;darkOpacity=0.05;darkOpacity2=0.1;" vertex="1" parent="1">
          <mxGeometry x="869" y="3599" width="80" height="80" as="geometry" />
        </mxCell>
        <mxCell id="upFs9hlHG09d8Zoyp-7f-608" value="" style="shape=cube;whiteSpace=wrap;html=1;boundedLbl=1;backgroundOutline=1;darkOpacity=0.05;darkOpacity2=0.1;" vertex="1" parent="1">
          <mxGeometry x="809" y="3599" width="80" height="80" as="geometry" />
        </mxCell>
        <mxCell id="upFs9hlHG09d8Zoyp-7f-609" value="" style="shape=cube;whiteSpace=wrap;html=1;boundedLbl=1;backgroundOutline=1;darkOpacity=0.05;darkOpacity2=0.1;" vertex="1" parent="1">
          <mxGeometry x="749" y="3599" width="80" height="80" as="geometry" />
        </mxCell>
        <mxCell id="upFs9hlHG09d8Zoyp-7f-610" value="" style="shape=cube;whiteSpace=wrap;html=1;boundedLbl=1;backgroundOutline=1;darkOpacity=0.05;darkOpacity2=0.1;" vertex="1" parent="1">
          <mxGeometry x="689.5" y="3599" width="80" height="80" as="geometry" />
        </mxCell>
        <mxCell id="upFs9hlHG09d8Zoyp-7f-611" value="" style="shape=cube;whiteSpace=wrap;html=1;boundedLbl=1;backgroundOutline=1;darkOpacity=0.05;darkOpacity2=0.1;" vertex="1" parent="1">
          <mxGeometry x="948.5" y="3619" width="80" height="80" as="geometry" />
        </mxCell>
        <mxCell id="upFs9hlHG09d8Zoyp-7f-612" value="" style="shape=cube;whiteSpace=wrap;html=1;boundedLbl=1;backgroundOutline=1;darkOpacity=0.05;darkOpacity2=0.1;" vertex="1" parent="1">
          <mxGeometry x="888.5" y="3619" width="80" height="80" as="geometry" />
        </mxCell>
        <mxCell id="upFs9hlHG09d8Zoyp-7f-613" value="" style="shape=cube;whiteSpace=wrap;html=1;boundedLbl=1;backgroundOutline=1;darkOpacity=0.05;darkOpacity2=0.1;" vertex="1" parent="1">
          <mxGeometry x="828.5" y="3619" width="80" height="80" as="geometry" />
        </mxCell>
        <mxCell id="upFs9hlHG09d8Zoyp-7f-614" value="" style="shape=cube;whiteSpace=wrap;html=1;boundedLbl=1;backgroundOutline=1;darkOpacity=0.05;darkOpacity2=0.1;" vertex="1" parent="1">
          <mxGeometry x="768.5" y="3619" width="80" height="80" as="geometry" />
        </mxCell>
        <mxCell id="upFs9hlHG09d8Zoyp-7f-615" value="" style="shape=cube;whiteSpace=wrap;html=1;boundedLbl=1;backgroundOutline=1;darkOpacity=0.05;darkOpacity2=0.1;" vertex="1" parent="1">
          <mxGeometry x="709" y="3619" width="80" height="80" as="geometry" />
        </mxCell>
        <mxCell id="upFs9hlHG09d8Zoyp-7f-616" value="" style="shape=cube;whiteSpace=wrap;html=1;boundedLbl=1;backgroundOutline=1;darkOpacity=0.05;darkOpacity2=0.1;" vertex="1" parent="1">
          <mxGeometry x="968.5" y="3639" width="80" height="80" as="geometry" />
        </mxCell>
        <mxCell id="upFs9hlHG09d8Zoyp-7f-617" value="" style="shape=cube;whiteSpace=wrap;html=1;boundedLbl=1;backgroundOutline=1;darkOpacity=0.05;darkOpacity2=0.1;" vertex="1" parent="1">
          <mxGeometry x="908.5" y="3639" width="80" height="80" as="geometry" />
        </mxCell>
        <mxCell id="upFs9hlHG09d8Zoyp-7f-618" value="" style="shape=cube;whiteSpace=wrap;html=1;boundedLbl=1;backgroundOutline=1;darkOpacity=0.05;darkOpacity2=0.1;" vertex="1" parent="1">
          <mxGeometry x="848.5" y="3639" width="80" height="80" as="geometry" />
        </mxCell>
        <mxCell id="upFs9hlHG09d8Zoyp-7f-619" value="" style="shape=cube;whiteSpace=wrap;html=1;boundedLbl=1;backgroundOutline=1;darkOpacity=0.05;darkOpacity2=0.1;" vertex="1" parent="1">
          <mxGeometry x="788.5" y="3639" width="80" height="80" as="geometry" />
        </mxCell>
        <mxCell id="upFs9hlHG09d8Zoyp-7f-620" value="" style="shape=cube;whiteSpace=wrap;html=1;boundedLbl=1;backgroundOutline=1;darkOpacity=0.05;darkOpacity2=0.1;" vertex="1" parent="1">
          <mxGeometry x="729" y="3639" width="80" height="80" as="geometry" />
        </mxCell>
        <mxCell id="upFs9hlHG09d8Zoyp-7f-621" value="" style="endArrow=classic;html=1;rounded=0;" edge="1" parent="1">
          <mxGeometry width="50" height="50" relative="1" as="geometry">
            <mxPoint x="193" y="3988" as="sourcePoint" />
            <mxPoint x="365" y="3990" as="targetPoint" />
          </mxGeometry>
        </mxCell>
        <mxCell id="upFs9hlHG09d8Zoyp-7f-625" value="&lt;font style=&quot;font-size: 18px;&quot;&gt;seq&lt;/font&gt;" style="edgeLabel;html=1;align=center;verticalAlign=middle;resizable=0;points=[];" vertex="1" connectable="0" parent="upFs9hlHG09d8Zoyp-7f-621">
          <mxGeometry x="-0.2154" y="2" relative="1" as="geometry">
            <mxPoint y="24" as="offset" />
          </mxGeometry>
        </mxCell>
        <mxCell id="upFs9hlHG09d8Zoyp-7f-622" value="" style="endArrow=classic;html=1;rounded=0;" edge="1" parent="1">
          <mxGeometry width="50" height="50" relative="1" as="geometry">
            <mxPoint x="522" y="3673" as="sourcePoint" />
            <mxPoint x="522.5" y="3817" as="targetPoint" />
          </mxGeometry>
        </mxCell>
        <mxCell id="upFs9hlHG09d8Zoyp-7f-624" value="&lt;font style=&quot;font-size: 18px;&quot;&gt;batch&lt;/font&gt;" style="edgeLabel;html=1;align=center;verticalAlign=middle;resizable=0;points=[];" vertex="1" connectable="0" parent="upFs9hlHG09d8Zoyp-7f-622">
          <mxGeometry x="0.0001" y="1" relative="1" as="geometry">
            <mxPoint x="33" as="offset" />
          </mxGeometry>
        </mxCell>
        <mxCell id="upFs9hlHG09d8Zoyp-7f-623" value="" style="endArrow=classic;html=1;rounded=0;" edge="1" parent="1">
          <mxGeometry width="50" height="50" relative="1" as="geometry">
            <mxPoint x="504" y="3635" as="sourcePoint" />
            <mxPoint x="421" y="3549" as="targetPoint" />
          </mxGeometry>
        </mxCell>
        <mxCell id="upFs9hlHG09d8Zoyp-7f-626" value="&lt;font style=&quot;font-size: 18px;&quot;&gt;feature&lt;/font&gt;" style="edgeLabel;html=1;align=center;verticalAlign=middle;resizable=0;points=[];" vertex="1" connectable="0" parent="upFs9hlHG09d8Zoyp-7f-623">
          <mxGeometry x="0.0482" y="-3" relative="1" as="geometry">
            <mxPoint x="38" y="-3" as="offset" />
          </mxGeometry>
        </mxCell>
        <mxCell id="upFs9hlHG09d8Zoyp-7f-631" value="" style="endArrow=classic;html=1;rounded=0;" edge="1" parent="1">
          <mxGeometry width="50" height="50" relative="1" as="geometry">
            <mxPoint x="1077" y="3637" as="sourcePoint" />
            <mxPoint x="994" y="3551" as="targetPoint" />
          </mxGeometry>
        </mxCell>
        <mxCell id="upFs9hlHG09d8Zoyp-7f-632" value="&lt;font style=&quot;font-size: 18px;&quot;&gt;feature&lt;/font&gt;" style="edgeLabel;html=1;align=center;verticalAlign=middle;resizable=0;points=[];" vertex="1" connectable="0" parent="upFs9hlHG09d8Zoyp-7f-631">
          <mxGeometry x="0.0482" y="-3" relative="1" as="geometry">
            <mxPoint x="38" y="-3" as="offset" />
          </mxGeometry>
        </mxCell>
        <mxCell id="upFs9hlHG09d8Zoyp-7f-633" value="" style="endArrow=classic;html=1;rounded=0;" edge="1" parent="1">
          <mxGeometry width="50" height="50" relative="1" as="geometry">
            <mxPoint x="778" y="3982" as="sourcePoint" />
            <mxPoint x="950" y="3984" as="targetPoint" />
          </mxGeometry>
        </mxCell>
        <mxCell id="upFs9hlHG09d8Zoyp-7f-634" value="&lt;font style=&quot;font-size: 18px;&quot;&gt;seq&lt;/font&gt;" style="edgeLabel;html=1;align=center;verticalAlign=middle;resizable=0;points=[];" vertex="1" connectable="0" parent="upFs9hlHG09d8Zoyp-7f-633">
          <mxGeometry x="-0.2154" y="2" relative="1" as="geometry">
            <mxPoint y="24" as="offset" />
          </mxGeometry>
        </mxCell>
        <mxCell id="upFs9hlHG09d8Zoyp-7f-635" value="" style="endArrow=classic;html=1;rounded=0;" edge="1" parent="1">
          <mxGeometry width="50" height="50" relative="1" as="geometry">
            <mxPoint x="1080" y="3670" as="sourcePoint" />
            <mxPoint x="1080.5" y="3814" as="targetPoint" />
          </mxGeometry>
        </mxCell>
        <mxCell id="upFs9hlHG09d8Zoyp-7f-636" value="&lt;font style=&quot;font-size: 18px;&quot;&gt;batch&lt;/font&gt;" style="edgeLabel;html=1;align=center;verticalAlign=middle;resizable=0;points=[];" vertex="1" connectable="0" parent="upFs9hlHG09d8Zoyp-7f-635">
          <mxGeometry x="0.0001" y="1" relative="1" as="geometry">
            <mxPoint x="33" as="offset" />
          </mxGeometry>
        </mxCell>
      </root>
    </mxGraphModel>
  </diagram>
</mxfile>
